<svg width="280" height="213" viewBox="0 0 280 213" fill="none" xmlns="http://www.w3.org/2000/svg">
<g clip-path="url(#clip0)">
<path d="M0.700195 0.400391H279.2V212.4H0.700195V0.400391Z" fill="white" fill-opacity="0.01"/>
<path d="M214.2 150.9H140V183.86H214.2V150.9Z" fill="url(#paint0_linear)"/>
<path d="M110.7 121.7H77.7002C77.7266 105.186 84.2989 89.3546 95.9767 77.6768C107.654 65.9991 123.485 59.4268 140 59.4004V92.4004C132.229 92.4004 124.777 95.4873 119.282 100.982C113.787 106.477 110.7 113.93 110.7 121.7Z" fill="url(#paint1_linear)"/>
<path d="M140 183.901C123.495 183.901 107.663 177.351 95.9828 165.689C84.3021 154.027 77.7267 138.207 77.7002 121.701H110.7C110.727 129.455 113.825 136.882 119.317 142.355C124.809 147.828 132.247 150.901 140 150.901V183.901Z" fill="url(#paint2_linear)"/>
<g opacity="0.5">
<path opacity="0.5" d="M156.8 178.101H139.1C124.83 177.908 111.161 172.323 100.84 162.466C90.5188 152.609 84.3103 139.211 83.4618 124.965C82.6134 110.718 87.1878 96.6785 96.266 85.6663C105.344 74.6541 118.254 67.4855 132.4 65.6007C132.505 65.5867 132.612 65.5938 132.715 65.6216C132.817 65.6493 132.913 65.6971 132.997 65.7623C133.081 65.8274 133.151 65.9086 133.203 66.001C133.255 66.0935 133.288 66.1953 133.3 66.3007C133.332 66.4076 133.338 66.5206 133.318 66.6302C133.297 66.7399 133.251 66.843 133.182 66.9311C133.114 67.0192 133.025 67.0896 132.924 67.1365C132.823 67.1834 132.712 67.2054 132.6 67.2007C118.561 68.66 105.626 75.4801 96.4909 86.2402C87.3556 97.0002 82.7245 110.87 83.5624 124.96C84.4003 139.05 90.6427 152.274 100.989 161.875C111.335 171.477 124.987 176.716 139.1 176.501H156.8C156.905 176.501 157.009 176.521 157.106 176.562C157.204 176.602 157.292 176.661 157.366 176.735C157.44 176.809 157.499 176.898 157.539 176.995C157.58 177.092 157.6 177.196 157.6 177.301C157.579 177.505 157.487 177.697 157.342 177.842C157.196 177.988 157.005 178.079 156.8 178.101Z" fill="url(#paint3_linear)"/>
</g>
<path d="M162 158.3H139.1C129.384 158.3 120.065 154.447 113.185 147.586C106.305 140.726 102.427 131.416 102.4 121.7C102.407 115.961 103.778 110.305 106.4 105.2C106.443 105.099 106.507 105.008 106.586 104.933C106.666 104.857 106.76 104.799 106.863 104.761C106.967 104.724 107.076 104.708 107.186 104.714C107.296 104.721 107.403 104.75 107.5 104.8C107.605 104.839 107.699 104.902 107.774 104.984C107.85 105.066 107.904 105.165 107.934 105.273C107.963 105.381 107.966 105.494 107.943 105.603C107.92 105.712 107.871 105.814 107.8 105.9C105.367 110.812 104.101 116.219 104.1 121.7C104.1 130.983 107.788 139.885 114.352 146.449C120.915 153.013 129.818 156.7 139.1 156.7H162C162.205 156.722 162.396 156.813 162.542 156.959C162.687 157.104 162.779 157.296 162.8 157.5C162.8 157.712 162.716 157.916 162.566 158.066C162.416 158.216 162.213 158.3 162 158.3Z" fill="url(#paint4_linear)"/>
<path d="M185.7 171.8H176.1C175.986 171.801 175.873 171.777 175.769 171.731C175.665 171.684 175.572 171.616 175.496 171.531C175.42 171.446 175.364 171.345 175.33 171.237C175.296 171.128 175.286 171.013 175.3 170.9C175.3 170.687 175.385 170.484 175.535 170.334C175.685 170.184 175.888 170.1 176.1 170.1H185.7C185.905 170.121 186.096 170.213 186.242 170.358C186.387 170.504 186.478 170.695 186.5 170.9C186.502 171.122 186.421 171.337 186.273 171.503C186.125 171.669 185.921 171.775 185.7 171.8Z" fill="url(#paint5_linear)"/>
<path d="M200 179.1H176.1C175.986 179.101 175.873 179.078 175.769 179.031C175.665 178.985 175.572 178.917 175.496 178.832C175.42 178.747 175.364 178.646 175.33 178.537C175.296 178.428 175.286 178.314 175.3 178.2C175.3 177.988 175.385 177.785 175.535 177.635C175.685 177.485 175.888 177.4 176.1 177.4H200C200.205 177.422 200.396 177.513 200.542 177.659C200.687 177.805 200.778 177.996 200.8 178.2C200.802 178.423 200.721 178.638 200.573 178.804C200.425 178.97 200.221 179.076 200 179.1Z" fill="url(#paint6_linear)"/>
<path d="M107.1 106.399H106.7C106.607 106.348 106.526 106.278 106.461 106.194C106.396 106.11 106.348 106.015 106.32 105.912C106.292 105.81 106.284 105.703 106.298 105.598C106.312 105.493 106.347 105.391 106.4 105.299C108.94 100.257 112.606 95.8663 117.114 92.4675C121.623 89.0688 126.853 86.753 132.4 85.6995C132.505 85.6798 132.613 85.681 132.718 85.703C132.822 85.725 132.921 85.7674 133.01 85.8277C133.098 85.8881 133.173 85.9652 133.232 86.0548C133.29 86.1443 133.33 86.2444 133.35 86.3495C133.37 86.4545 133.369 86.5624 133.347 86.667C133.325 86.7716 133.282 86.8709 133.222 86.9591C133.161 87.0473 133.084 87.1228 132.995 87.1812C132.905 87.2396 132.805 87.2798 132.7 87.2995C127.401 88.3191 122.405 90.5333 118.09 93.7736C113.776 97.0139 110.256 101.195 107.8 105.999C107.729 106.122 107.627 106.224 107.504 106.294C107.381 106.364 107.242 106.401 107.1 106.399Z" fill="url(#paint7_linear)"/>
<path d="M140 183.901V150.901C147.744 150.901 155.171 147.825 160.648 142.349C166.124 136.873 169.2 129.445 169.2 121.701H202.2C202.174 138.19 195.612 153.995 183.953 165.654C172.294 177.313 156.488 183.875 140 183.901Z" fill="#79E2F2"/>
<path d="M202.2 121.7H169.2C169.2 113.947 166.127 106.509 160.654 101.017C155.18 95.5255 147.754 92.4269 140 92.4004V59.4004C156.498 59.4532 172.303 66.0371 183.959 77.7121C195.615 89.387 202.174 105.203 202.2 121.7Z" fill="#79E2F2"/>
<path d="M139.9 150.9H65.7002V183.86H139.9V150.9Z" fill="#79E2F2"/>
<path d="M49.3002 175.701H0.700195V208.661H49.3002V175.701Z" fill="url(#paint8_linear)"/>
<path d="M140 158.3H125.8C125.691 158.318 125.58 158.309 125.475 158.275C125.37 158.24 125.275 158.182 125.197 158.104C125.119 158.026 125.06 157.931 125.026 157.826C124.992 157.721 124.983 157.609 125 157.5C125 157.288 125.084 157.085 125.234 156.935C125.384 156.785 125.588 156.7 125.8 156.7H140C146.615 156.693 153.093 154.811 158.682 151.272C164.271 147.734 168.743 142.684 171.58 136.707C174.416 130.731 175.501 124.073 174.708 117.506C173.915 110.938 171.277 104.73 167.1 99.6005C167.032 99.4257 167.02 99.234 167.066 99.0521C167.112 98.8702 167.214 98.7072 167.357 98.586C167.5 98.4648 167.678 98.3914 167.865 98.3761C168.052 98.3607 168.239 98.4042 168.4 98.5005C172.757 103.879 175.504 110.381 176.324 117.254C177.144 124.127 176.003 131.092 173.034 137.345C170.064 143.597 165.387 148.883 159.542 152.591C153.697 156.299 146.922 158.278 140 158.3Z" fill="url(#paint9_linear)"/>
<path d="M125.8 158.301H72.3C72.0878 158.301 71.8843 158.217 71.7343 158.067C71.5843 157.917 71.5 157.713 71.5 157.501C71.5217 157.296 71.613 157.105 71.7586 156.96C71.9042 156.814 72.0953 156.723 72.3 156.701H125.8C126.005 156.723 126.196 156.814 126.341 156.96C126.487 157.105 126.578 157.296 126.6 157.501C126.6 157.713 126.516 157.917 126.366 158.067C126.216 158.217 126.012 158.301 125.8 158.301Z" fill="url(#paint10_linear)"/>
<g opacity="0.5">
<path opacity="0.5" d="M140 178.101H108.8C108.595 178.079 108.404 177.988 108.259 177.842C108.113 177.696 108.022 177.505 108 177.301C108 177.195 108.021 177.091 108.061 176.994C108.101 176.897 108.16 176.809 108.234 176.735C108.309 176.661 108.397 176.602 108.494 176.561C108.591 176.521 108.695 176.501 108.8 176.501H140C152.709 176.455 165.008 172.002 174.8 163.901C174.885 163.835 174.983 163.787 175.087 163.759C175.191 163.731 175.299 163.723 175.406 163.737C175.513 163.751 175.616 163.786 175.709 163.84C175.803 163.894 175.884 163.965 175.95 164.051C176.016 164.136 176.064 164.233 176.092 164.337C176.12 164.441 176.127 164.55 176.113 164.657C176.099 164.763 176.064 164.866 176.011 164.96C175.957 165.053 175.885 165.135 175.8 165.201C165.726 173.525 153.069 178.086 140 178.101Z" fill="url(#paint11_linear)"/>
</g>
<path d="M175.3 165.4C175.183 165.404 175.067 165.379 174.962 165.326C174.857 165.274 174.767 165.196 174.7 165.1C174.621 165.018 174.56 164.92 174.522 164.813C174.483 164.705 174.468 164.591 174.478 164.477C174.487 164.364 174.521 164.253 174.577 164.154C174.632 164.054 174.708 163.968 174.8 163.9C184.136 156.281 190.649 145.754 193.3 134C193.383 133.808 193.524 133.647 193.704 133.539C193.883 133.431 194.092 133.383 194.3 133.4C194.521 133.448 194.716 133.578 194.846 133.763C194.975 133.948 195.03 134.176 195 134.4C192.141 146.49 185.396 157.309 175.8 165.2L175.3 165.4Z" fill="url(#paint12_linear)"/>
<path d="M194.2 135.001H194C193.884 134.99 193.772 134.954 193.672 134.896C193.572 134.838 193.485 134.758 193.418 134.663C193.352 134.568 193.307 134.459 193.286 134.345C193.266 134.23 193.271 134.113 193.3 134.001C194.297 129.977 194.801 125.846 194.8 121.701C194.799 111.714 192.069 101.918 186.905 93.3698C181.741 84.822 174.34 77.8477 165.5 73.2007C165.402 73.1547 165.313 73.0898 165.24 73.0097C165.166 72.9295 165.109 72.8357 165.072 72.7335C165.035 72.6314 165.018 72.5229 165.023 72.4143C165.028 72.3058 165.054 72.1992 165.1 72.1007C165.146 72.0022 165.211 71.9137 165.291 71.8403C165.371 71.7669 165.465 71.71 165.567 71.6729C165.669 71.6357 165.778 71.6191 165.886 71.6238C165.995 71.6286 166.102 71.6547 166.2 71.7007C175.311 76.4927 182.94 83.6831 188.263 92.4952C193.585 101.307 196.399 111.406 196.4 121.701C196.385 125.972 195.915 130.229 195 134.401C194.955 134.577 194.851 134.732 194.705 134.841C194.56 134.95 194.382 135.006 194.2 135.001Z" fill="url(#paint13_linear)"/>
<path d="M139.2 171.5H72.3C72.0878 171.5 71.8843 171.416 71.7343 171.266C71.5843 171.116 71.5 170.912 71.5 170.7C71.5 170.488 71.5843 170.284 71.7343 170.134C71.8843 169.984 72.0878 169.9 72.3 169.9H139.2C146.999 169.883 154.68 167.997 161.6 164.4C161.698 164.35 161.805 164.321 161.914 164.314C162.024 164.307 162.134 164.323 162.237 164.361C162.34 164.398 162.435 164.457 162.514 164.532C162.594 164.608 162.657 164.699 162.7 164.8C162.753 164.892 162.788 164.993 162.802 165.098C162.816 165.203 162.808 165.31 162.78 165.413C162.752 165.515 162.704 165.611 162.639 165.695C162.574 165.778 162.493 165.848 162.4 165.9C155.22 169.579 147.268 171.498 139.2 171.5Z" fill="url(#paint14_linear)"/>
<g style="mix-blend-mode:multiply" opacity="0.5">
<path style="mix-blend-mode:multiply" opacity="0.5" d="M185.1 141.2H184.8C184.699 141.157 184.608 141.094 184.532 141.014C184.457 140.934 184.398 140.84 184.361 140.737C184.323 140.634 184.307 140.524 184.314 140.414C184.321 140.305 184.35 140.198 184.4 140.1C186.951 134.128 188.244 127.694 188.2 121.2C188.082 111.298 184.942 101.668 179.2 93.6C179.072 93.4389 179.011 93.2348 179.03 93.0299C179.048 92.8251 179.145 92.6353 179.3 92.5C179.388 92.4256 179.492 92.3713 179.604 92.3408C179.715 92.3103 179.832 92.3044 179.946 92.3234C180.06 92.3424 180.169 92.3859 180.264 92.4509C180.36 92.5159 180.44 92.6009 180.5 92.7C186.483 101.004 189.734 110.965 189.8 121.2C189.909 127.904 188.579 134.553 185.9 140.7C185.837 140.857 185.725 140.991 185.582 141.08C185.438 141.17 185.269 141.212 185.1 141.2Z" fill="url(#paint15_linear)"/>
</g>
<path d="M167.2 90.201L166.7 90.001C161.704 85.9518 155.859 83.0807 149.6 81.601C149.398 81.5327 149.226 81.3946 149.117 81.2114C149.007 81.0282 148.965 80.8118 149 80.601C149.024 80.4942 149.068 80.3933 149.132 80.3045C149.196 80.2157 149.277 80.1409 149.371 80.0847C149.464 80.0285 149.569 79.9921 149.677 79.9777C149.785 79.9633 149.895 79.9712 150 80.001C156.523 81.4967 162.613 84.4735 167.8 88.701C167.913 88.826 167.988 88.98 168.018 89.1456C168.047 89.3112 168.03 89.4817 167.968 89.6379C167.905 89.7941 167.8 89.9296 167.665 90.0292C167.529 90.1287 167.368 90.1882 167.2 90.201Z" fill="url(#paint16_linear)"/>
<path d="M144.5 56.2012H135.5C135.058 56.2012 134.7 56.5593 134.7 57.0012V94.9512C134.7 95.393 135.058 95.7512 135.5 95.7512H144.5C144.942 95.7512 145.3 95.393 145.3 94.9512V57.0012C145.3 56.5593 144.942 56.2012 144.5 56.2012Z" fill="#00B8D9"/>
<path d="M54.0003 172.301H49.9003C49.5689 172.301 49.3003 172.569 49.3003 172.901V211.251C49.3003 211.582 49.5689 211.851 49.9003 211.851H54.0003C54.3317 211.851 54.6003 211.582 54.6003 211.251V172.901C54.6003 172.569 54.3317 172.301 54.0003 172.301Z" fill="#00C7E5"/>
<path d="M218.9 148.201H214.8C214.469 148.201 214.2 148.47 214.2 148.801V187.151C214.2 187.483 214.469 187.751 214.8 187.751H218.9C219.232 187.751 219.5 187.483 219.5 187.151V148.801C219.5 148.47 219.232 148.201 218.9 148.201Z" fill="#00C7E5"/>
<path d="M230.1 172.9H226C225.669 172.9 225.4 173.169 225.4 173.5V211.85C225.4 212.182 225.669 212.45 226 212.45H230.1C230.432 212.45 230.7 212.182 230.7 211.85V173.5C230.7 173.169 230.432 172.9 230.1 172.9Z" fill="#00C7E5"/>
<path d="M65.2 147.6H61.1C60.7686 147.6 60.5 147.868 60.5 148.2V186.55C60.5 186.881 60.7686 187.15 61.1 187.15H65.2C65.5314 187.15 65.8 186.881 65.8 186.55V148.2C65.8 147.868 65.5314 147.6 65.2 147.6Z" fill="#00C7E5"/>
<path d="M279.3 176.201H230.7V209.161H279.3V176.201Z" fill="url(#paint17_linear)"/>
<path d="M114 126.2V117.2C114 116.759 113.642 116.4 113.2 116.4H75.25C74.8082 116.4 74.45 116.759 74.45 117.2V126.2C74.45 126.642 74.8082 127 75.25 127H113.2C113.642 127 114 126.642 114 126.2Z" fill="#00A3BF"/>
<path d="M205.5 126.2V117.2C205.5 116.759 205.142 116.4 204.7 116.4H166.75C166.308 116.4 165.95 116.759 165.95 117.2V126.2C165.95 126.642 166.308 127 166.75 127H204.7C205.142 127 205.5 126.642 205.5 126.2Z" fill="#00B8D9"/>
<path d="M134.7 86.7008C133.984 86.7008 133.297 86.4163 132.791 85.91C132.284 85.4036 132 84.7169 132 84.0008C132 83.2847 132.284 82.5979 132.791 82.0916C133.297 81.5852 133.984 81.3008 134.7 81.3008V86.7008Z" fill="#00B8D9"/>
<path d="M134.7 70.3012C134.309 70.3775 133.906 70.3663 133.52 70.2685C133.134 70.1706 132.774 69.9885 132.466 69.7352C132.159 69.4819 131.911 69.1637 131.741 68.8034C131.571 68.4431 131.483 68.0496 131.483 67.6512C131.483 67.2528 131.571 66.8593 131.741 66.499C131.911 66.1387 132.159 65.8204 132.466 65.5671C132.774 65.3138 133.134 65.1317 133.52 65.0339C133.906 64.936 134.309 64.9249 134.7 65.0012V70.3012Z" fill="#00B8D9"/>
<path d="M145.1 172.9C145.491 172.823 145.894 172.834 146.28 172.932C146.667 173.03 147.026 173.212 147.334 173.466C147.641 173.719 147.889 174.037 148.059 174.397C148.229 174.758 148.317 175.151 148.317 175.55C148.317 175.948 148.229 176.341 148.059 176.702C147.889 177.062 147.641 177.38 147.334 177.634C147.026 177.887 146.667 178.069 146.28 178.167C145.894 178.265 145.491 178.276 145.1 178.2V172.9Z" fill="#00B8D9"/>
<path d="M145.1 156.601C145.491 156.524 145.894 156.536 146.28 156.633C146.667 156.731 147.026 156.913 147.334 157.167C147.641 157.42 147.889 157.738 148.059 158.099C148.229 158.459 148.317 158.852 148.317 159.251C148.317 159.649 148.229 160.043 148.059 160.403C147.889 160.763 147.641 161.082 147.334 161.335C147.026 161.588 146.667 161.77 146.28 161.868C145.894 161.966 145.491 161.977 145.1 161.901V156.601Z" fill="#00B8D9"/>
<path d="M144.5 147.6H135.5C135.058 147.6 134.7 147.958 134.7 148.4V186.35C134.7 186.791 135.058 187.15 135.5 187.15H144.5C144.942 187.15 145.3 186.791 145.3 186.35V148.4C145.3 147.958 144.942 147.6 144.5 147.6Z" fill="#00B8D9"/>
<path d="M105.1 127C105.1 127.716 104.816 128.403 104.309 128.909C103.803 129.416 103.116 129.7 102.4 129.7C101.684 129.7 100.997 129.416 100.491 128.909C99.9847 128.403 99.7002 127.716 99.7002 127H105.1Z" fill="#00A3BF"/>
<path d="M88.7004 127C88.5804 127.615 88.2505 128.169 87.767 128.567C87.2836 128.965 86.6767 129.183 86.0504 129.183C85.4241 129.183 84.8172 128.965 84.3338 128.567C83.8503 128.169 83.5204 127.615 83.4004 127H88.7004Z" fill="#00A3BF"/>
<path d="M174.2 116.401C174.124 116.01 174.135 115.607 174.233 115.22C174.331 114.834 174.513 114.474 174.766 114.167C175.02 113.859 175.338 113.612 175.698 113.442C176.059 113.272 176.452 113.184 176.85 113.184C177.249 113.184 177.642 113.272 178.003 113.442C178.363 113.612 178.681 113.859 178.934 114.167C179.188 114.474 179.37 114.834 179.468 115.22C179.566 115.607 179.577 116.01 179.5 116.401H174.2Z" fill="#00B8D9"/>
<path d="M190.5 116.401C190.424 116.01 190.435 115.607 190.533 115.22C190.631 114.834 190.813 114.474 191.066 114.167C191.319 113.859 191.638 113.612 191.998 113.442C192.358 113.272 192.752 113.184 193.15 113.184C193.549 113.184 193.942 113.272 194.302 113.442C194.663 113.612 194.981 113.859 195.234 114.167C195.488 114.474 195.67 114.834 195.767 115.22C195.865 115.607 195.877 116.01 195.8 116.401H190.5Z" fill="#00B8D9"/>
<path d="M230.7 181.801C231.315 181.921 231.869 182.251 232.267 182.734C232.665 183.218 232.883 183.824 232.883 184.451C232.883 185.077 232.665 185.684 232.267 186.167C231.869 186.651 231.315 186.981 230.7 187.101V181.801Z" fill="#00C7E5"/>
<path d="M230.7 198.201C231.315 198.321 231.869 198.651 232.267 199.135C232.665 199.618 232.883 200.225 232.883 200.851C232.883 201.477 232.665 202.084 232.267 202.568C231.869 203.051 231.315 203.381 230.7 203.501V198.201Z" fill="#00C7E5"/>
<path d="M65.7002 156.2C66.0912 156.124 66.4943 156.135 66.8805 156.233C67.2667 156.331 67.6265 156.513 67.934 156.766C68.2415 157.02 68.4892 157.338 68.6592 157.698C68.8292 158.059 68.9174 158.452 68.9174 158.85C68.9174 159.249 68.8292 159.642 68.6592 160.003C68.4892 160.363 68.2415 160.681 67.934 160.934C67.6265 161.188 67.2667 161.37 66.8805 161.468C66.4943 161.566 66.0912 161.577 65.7002 161.5V156.2Z" fill="#00C7E5"/>
<path d="M65.7002 172.5C66.4163 172.5 67.103 172.784 67.6094 173.291C68.1157 173.797 68.4002 174.484 68.4002 175.2C68.4005 175.55 68.33 175.896 68.1932 176.219C68.0563 176.541 67.8558 176.832 67.6037 177.075C67.3515 177.318 67.053 177.507 66.7259 177.632C66.3988 177.756 66.05 177.813 65.7002 177.8V172.5Z" fill="#00C7E5"/>
<path d="M138 21.3008H141.7V24.8008C141.7 25.0372 141.653 25.2712 141.563 25.4896C141.473 25.708 141.34 25.9064 141.173 26.0736C141.006 26.2407 140.807 26.3733 140.589 26.4638C140.37 26.5542 140.136 26.6008 139.9 26.6008C139.423 26.6008 138.965 26.4111 138.627 26.0736C138.29 25.736 138.1 25.2782 138.1 24.8008V21.3008H138Z" fill="#0065FF"/>
<path d="M139.8 27.5C139.102 27.4741 138.44 27.1783 137.955 26.6747C137.47 26.1711 137.2 25.4991 137.2 24.8V21.3C137.2 21.0878 137.284 20.8843 137.435 20.7343C137.585 20.5843 137.788 20.5 138 20.5H141.7C141.905 20.5217 142.096 20.613 142.242 20.7586C142.387 20.9042 142.478 21.0953 142.5 21.3V24.8C142.5 25.1546 142.43 25.5057 142.295 25.8332C142.159 26.1608 141.96 26.4585 141.709 26.7092C141.459 26.9599 141.161 27.1588 140.833 27.2945C140.506 27.4302 140.155 27.5 139.8 27.5ZM138.8 22.1V24.8C138.799 25.0752 138.901 25.3409 139.086 25.5445C139.271 25.7481 139.526 25.875 139.8 25.9C140.092 25.9 140.372 25.7841 140.578 25.5778C140.784 25.3715 140.9 25.0917 140.9 24.8V22.1H138.8Z" fill="#0065FF"/>
<path opacity="0.8" d="M133.4 75.3997L131.7 73.4997L131.1 72.7997C130.5 72.4997 129.4 72.9997 128.9 73.1997C128.4 73.3997 129.2 72.2997 128.8 71.8997C128.4 71.4997 127.4 71.8997 126.9 72.0997L125.1 72.5997C124.86 72.7591 124.586 72.8617 124.3 72.8997L123.6 72.6997C123.007 72.7594 122.431 72.9289 121.9 73.1997L120.1 73.7997L116.6 75.1997C112.83 76.8972 109.3 79.0825 106.1 81.6997C104.057 83.3427 102.151 85.1486 100.4 87.0997C98.6877 88.9373 97.085 90.874 95.6 92.8997C95.301 93.2417 95.0332 93.6098 94.8 93.9997C94.6 94.2997 94 94.8997 94 95.2997C94 95.6997 95.2 97.0997 95.6 97.4997C95.811 97.8449 96.0819 98.1497 96.4 98.3997C97.1 98.9997 97.5 98.4997 97.9 97.8997L99.5 95.6997L98.8 97.8997C98.684 98.2397 98.5505 98.5735 98.4 98.8997C98.3 99.5997 98.8 100.3 99.5 99.9997C100.2 99.6997 100.3 98.9997 100.6 98.5997L101.7 97.0997L104.1 94.2997L104.7 94.9997C104.9 95.2997 104.9 95.1997 104.7 95.4997L103.5 97.2997C102.9 98.1997 103.8 99.1997 104.7 98.3997L106.1 96.7997C107.6 95.0997 108.7 93.0997 110.2 91.4997C114.316 87.2759 119.205 83.8812 124.6 81.4997L127.7 80.1997L129.3 79.6997L130.9 79.1997C131.6 78.8997 132 78.0997 132.5 77.5997C133 77.0997 134.1 76.1997 133.4 75.3997Z" fill="url(#paint18_linear)"/>
<path d="M99.2 100.1H98.9C98.7025 100.032 98.5397 99.889 98.4463 99.7021C98.3528 99.5152 98.3362 99.2992 98.4 99.1002L100.9 91.7003C100.968 91.5028 101.111 91.34 101.298 91.2466C101.485 91.1531 101.701 91.1365 101.9 91.2003C102.123 91.2697 102.311 91.4234 102.423 91.6287C102.535 91.834 102.562 92.0749 102.5 92.3002L100 99.6002C99.9181 99.743 99.8022 99.8633 99.6626 99.9505C99.5231 100.038 99.3642 100.089 99.2 100.1Z" fill="#4C9AFF"/>
<path d="M104 98.7005L103.5 98.5005C103.409 98.4328 103.332 98.3463 103.277 98.2467C103.221 98.1472 103.188 98.0369 103.178 97.9232C103.169 97.8096 103.184 97.6952 103.222 97.5879C103.26 97.4805 103.321 97.3825 103.4 97.3005L105.1 95.4005L103.4 93.5005C103.321 93.4186 103.26 93.3206 103.222 93.2132C103.184 93.1058 103.169 92.9915 103.178 92.8779C103.188 92.7642 103.221 92.6539 103.277 92.5543C103.332 92.4548 103.409 92.3682 103.5 92.3005C103.661 92.1726 103.866 92.1116 104.07 92.1302C104.275 92.1489 104.465 92.2457 104.6 92.4005L106.8 94.9005C106.941 95.0491 107.019 95.2459 107.019 95.4505C107.019 95.6551 106.941 95.852 106.8 96.0005L104.6 98.4005C104.542 98.5046 104.453 98.5888 104.346 98.6422C104.239 98.6957 104.119 98.716 104 98.7005Z" fill="#4C9AFF"/>
<path d="M97 98.7005C96.8829 98.7048 96.7666 98.6795 96.6617 98.6271C96.5569 98.5747 96.4669 98.4968 96.4 98.4005L94.2 96.0005C94.0594 95.852 93.981 95.6551 93.981 95.4505C93.981 95.2459 94.0594 95.0491 94.2 94.9005L96.4 92.4005C96.5354 92.2457 96.7251 92.1489 96.93 92.1302C97.1348 92.1116 97.339 92.1726 97.5 92.3005C97.5918 92.3682 97.668 92.4548 97.7236 92.5543C97.7792 92.6539 97.8128 92.7642 97.8223 92.8779C97.8318 92.9915 97.8168 93.1058 97.7785 93.2132C97.7402 93.3206 97.6793 93.4186 97.6 93.5005L95.9 95.4005L97.6 97.3005C97.6793 97.3825 97.7402 97.4805 97.7785 97.5879C97.8168 97.6952 97.8318 97.8096 97.8223 97.9232C97.8128 98.0369 97.7792 98.1472 97.7236 98.2467C97.668 98.3463 97.5918 98.4328 97.5 98.5005L97 98.7005Z" fill="#4C9AFF"/>
<path d="M119.3 101.3L118.7 101L95.4004 77.8001C95.2413 77.641 95.1519 77.4251 95.1519 77.2001C95.1519 76.9751 95.2413 76.7592 95.4004 76.6001C95.5595 76.441 95.7753 76.3516 96.0004 76.3516C96.2254 76.3516 96.4413 76.441 96.6004 76.6001L119.9 99.9001C120.041 100.049 120.119 100.245 120.119 100.45C120.119 100.655 120.041 100.852 119.9 101C119.747 101.174 119.532 101.281 119.3 101.3Z" fill="#00C7E5"/>
<path d="M160.6 101.3C160.369 101.281 160.154 101.174 160 101C159.86 100.852 159.781 100.655 159.781 100.45C159.781 100.245 159.86 100.049 160 99.9001L183.3 76.6001C183.459 76.441 183.675 76.3516 183.9 76.3516C184.125 76.3516 184.341 76.441 184.5 76.6001C184.659 76.7592 184.749 76.9751 184.749 77.2001C184.749 77.4251 184.659 77.641 184.5 77.8001L161.2 101C161.133 101.096 161.043 101.174 160.939 101.227C160.834 101.279 160.717 101.304 160.6 101.3Z" fill="#00C7E5"/>
<path d="M139.8 23.4004C139.588 23.4004 139.384 23.3161 139.234 23.1661C139.084 23.016 139 22.8126 139 22.6004V1.20039C139.022 0.995653 139.113 0.804554 139.259 0.658969C139.404 0.513385 139.595 0.422117 139.8 0.400391C140.012 0.400391 140.216 0.484676 140.366 0.634705C140.516 0.784734 140.6 0.988217 140.6 1.20039V22.6004C140.617 22.7093 140.608 22.8208 140.574 22.9257C140.54 23.0305 140.481 23.1258 140.403 23.2038C140.325 23.2818 140.23 23.3403 140.125 23.3744C140.02 23.4086 139.909 23.4175 139.8 23.4004Z" fill="url(#paint19_linear)"/>
<path d="M96.0001 77.9997C95.8914 78.0158 95.7804 78.0061 95.6762 77.9713C95.572 77.9366 95.4774 77.8778 95.4001 77.7997C95.2525 77.6347 95.1709 77.4211 95.1709 77.1997C95.1709 76.9783 95.2525 76.7647 95.4001 76.5997L139.3 32.6997C139.459 32.5406 139.675 32.4512 139.9 32.4512C140.125 32.4512 140.341 32.5406 140.5 32.6997C140.659 32.8588 140.749 33.0747 140.749 33.2997C140.749 33.5247 140.659 33.7406 140.5 33.8997L96.6001 77.7997C96.5228 77.8778 96.4282 77.9366 96.324 77.9713C96.2197 78.0061 96.1088 78.0158 96.0001 77.9997Z" fill="#00C7E5"/>
<path d="M139.8 36.1008C139.579 36.0761 139.375 35.9705 139.227 35.8043C139.08 35.6381 138.999 35.4231 139 35.2008C139.022 34.9961 139.113 34.805 139.259 34.6594C139.404 34.5138 139.595 34.4225 139.8 34.4008C140.102 34.4008 140.401 34.3413 140.68 34.2257C140.959 34.1101 141.213 33.9407 141.426 33.7271C141.64 33.5136 141.809 33.26 141.925 32.981C142.041 32.7019 142.1 32.4028 142.1 32.1008C142.122 31.8961 142.213 31.705 142.359 31.5594C142.504 31.4138 142.695 31.3225 142.9 31.3008C143.122 31.2994 143.337 31.3804 143.504 31.5281C143.67 31.6758 143.775 31.8798 143.8 32.1008C143.8 32.6261 143.697 33.1462 143.496 33.6315C143.295 34.1168 143 34.5578 142.628 34.9292C142.257 35.3007 141.816 35.5953 141.331 35.7963C140.845 35.9973 140.325 36.1008 139.8 36.1008Z" fill="#0065FF"/>
<path d="M139.8 36.1C138.757 36.0739 137.765 35.641 137.036 34.8937C136.307 34.1463 135.9 33.1438 135.9 32.1C135.885 31.2025 136.188 30.3285 136.755 29.633C137.322 28.9374 138.118 28.4652 139 28.3V25.8C139.022 25.5953 139.113 25.4042 139.259 25.2586C139.404 25.113 139.595 25.0217 139.8 25C140.012 25 140.216 25.0843 140.366 25.2343C140.516 25.3843 140.6 25.5878 140.6 25.8V29C140.617 29.109 140.608 29.2204 140.574 29.3253C140.54 29.4301 140.481 29.5254 140.403 29.6034C140.325 29.6814 140.23 29.7399 140.125 29.774C140.02 29.8082 139.909 29.8171 139.8 29.8C139.198 29.8246 138.627 30.0748 138.201 30.5009C137.775 30.9271 137.525 31.4979 137.5 32.1C137.5 32.71 137.742 33.295 138.174 33.7263C138.605 34.1577 139.19 34.4 139.8 34.4C140.012 34.4 140.216 34.4843 140.366 34.6343C140.516 34.7843 140.6 34.9878 140.6 35.2C140.614 35.3131 140.604 35.428 140.57 35.5369C140.537 35.6458 140.48 35.7463 140.404 35.8315C140.328 35.9167 140.235 35.9848 140.131 36.0311C140.027 36.0774 139.914 36.1009 139.8 36.1Z" fill="#0065FF"/>
<path d="M183.8 77.9995C183.691 78.0156 183.58 78.0059 183.476 77.9711C183.372 77.9364 183.277 77.8776 183.2 77.7995L139.4 33.8995C139.296 33.8373 139.211 33.7493 139.151 33.6442C139.092 33.5391 139.061 33.4203 139.061 33.2995C139.061 33.1787 139.092 33.06 139.151 32.9548C139.211 32.8497 139.296 32.7617 139.4 32.6995C139.549 32.5589 139.745 32.4805 139.95 32.4805C140.155 32.4805 140.351 32.5589 140.5 32.6995L184.4 76.5995C184.548 76.7645 184.629 76.9781 184.629 77.1995C184.629 77.4209 184.548 77.6345 184.4 77.7995C184.3 77.9995 184 77.9995 183.8 77.9995Z" fill="#00C7E5"/>
<path d="M111.2 168.901L109.5 167.001L108.9 166.401C108.4 166.001 107.5 166.201 106.8 166.201C106.1 166.201 105.6 165.201 105 165.201H76.3003C75.835 165.152 75.3657 165.152 74.9003 165.201C74.5003 165.401 74.6003 165.701 74.4003 166.001C74.2003 166.301 72.7003 166.201 72.1003 166.201C71.5003 166.201 70.5003 166.001 69.9003 166.501L67.8003 168.801C67.1003 169.901 68.7003 171.001 69.3003 171.701C69.9003 172.401 70.0003 172.701 70.6003 172.701H72.1003C71.6003 174.001 72.7003 174.101 73.7003 174.101H102.2C103 174.101 104 174.301 104.4 173.501C104.8 172.701 104.5 172.901 104.8 172.701C105.165 172.652 105.535 172.652 105.9 172.701H108.2C109.1 172.701 109.6 171.801 110.1 171.201C110.6 170.601 111.9 169.701 111.2 168.901Z" fill="url(#paint20_linear)"/>
<path opacity="0.6" d="M186.1 145C185.42 144.121 184.686 143.286 183.9 142.5C183 141.7 182.4 143 182 143.6C181.6 144.2 181 145 180.6 145.8L181.5 142.9C181.6 142.5 181.9 142.1 181.7 141.7C181.5 141.3 180.2 141.6 179.9 142.2L177.6 145.6C177.4 145.8 176.7 147 176.4 147C176.047 146.68 175.744 146.309 175.5 145.9C175.4 145.6 176 145 176.1 144.8L176.9 143.6C177.3 142.9 176.7 141.8 175.8 142.4C175.423 142.655 175.114 142.998 174.9 143.4C174.218 144.062 173.614 144.8 173.1 145.6C172.6 146.4 172.1 147.2 171.5 148C169.572 150.611 167.283 152.934 164.7 154.9C160.639 158.095 156.078 160.595 151.2 162.3L146.8 163.6C146.2 163.7 145.9 164.1 145.5 164.6L144.1 166.1C143.3 167.2 144.6 168.1 145.3 168.9C146 169.7 145.9 169.8 146.3 170C146.7 170.2 148 169.9 148.5 169.7C148.276 170.021 148.17 170.409 148.2 170.8C148.4 171.6 149.1 171.5 149.7 171.3L152.7 170.5L158.5 168.8C162.574 167.429 166.442 165.511 170 163.1C174.261 160.136 178.097 156.603 181.4 152.6L183.8 149.5C184.3 148.9 184.7 148.2 185.2 147.5C185.7 146.8 186.7 145.7 186.1 145Z" fill="url(#paint21_linear)"/>
<path d="M178.5 150.201H178.3C178.077 150.131 177.889 149.977 177.777 149.772C177.665 149.567 177.638 149.326 177.7 149.101L180.2 141.801C180.289 141.596 180.451 141.431 180.654 141.338C180.857 141.246 181.088 141.233 181.3 141.301C181.498 141.369 181.66 141.512 181.754 141.699C181.847 141.886 181.864 142.102 181.8 142.301L179.3 149.701C179.237 149.858 179.126 149.991 178.982 150.081C178.838 150.171 178.669 150.213 178.5 150.201Z" fill="#4C9AFF"/>
<path d="M183.3 148.8C183.207 148.808 183.114 148.794 183.027 148.76C182.94 148.725 182.862 148.67 182.8 148.6C182.646 148.465 182.549 148.275 182.53 148.07C182.512 147.866 182.573 147.661 182.7 147.5L184.4 145.6L182.7 143.7C182.566 143.523 182.502 143.303 182.52 143.081C182.539 142.86 182.639 142.653 182.8 142.5C182.882 142.421 182.98 142.36 183.088 142.322C183.195 142.284 183.31 142.269 183.423 142.278C183.537 142.288 183.647 142.321 183.747 142.377C183.846 142.432 183.933 142.509 184 142.6L186.1 145C186.241 145.149 186.32 145.346 186.32 145.55C186.32 145.755 186.241 145.952 186.1 146.1L184 148.6C183.908 148.687 183.796 148.75 183.675 148.785C183.553 148.819 183.425 148.825 183.3 148.8Z" fill="#4C9AFF"/>
<path d="M176.3 148.801C176.1 148.801 175.8 148.801 175.7 148.601L173.5 146.101C173.36 145.952 173.281 145.756 173.281 145.551C173.281 145.346 173.36 145.15 173.5 145.001L175.7 142.601C175.758 142.511 175.835 142.436 175.926 142.381C176.017 142.326 176.12 142.292 176.226 142.282C176.332 142.273 176.439 142.287 176.538 142.325C176.638 142.363 176.728 142.423 176.8 142.501C176.892 142.569 176.968 142.655 177.024 142.755C177.079 142.854 177.113 142.965 177.123 143.078C177.132 143.192 177.117 143.306 177.079 143.414C177.04 143.521 176.98 143.619 176.9 143.701L175.2 145.601L176.9 147.501C176.978 147.574 177.038 147.663 177.076 147.763C177.114 147.862 177.129 147.969 177.119 148.075C177.109 148.181 177.076 148.284 177.02 148.375C176.965 148.466 176.89 148.543 176.8 148.601C176.7 148.801 176.5 148.801 176.3 148.801Z" fill="#4C9AFF"/>
<path d="M103.601 174.101H103.301C103.096 174.012 102.931 173.851 102.838 173.647C102.746 173.444 102.733 173.214 102.801 173.001L105.201 165.701C105.289 165.496 105.451 165.331 105.654 165.239C105.857 165.146 106.088 165.133 106.301 165.201C106.407 165.221 106.508 165.265 106.594 165.33C106.681 165.395 106.751 165.479 106.8 165.576C106.848 165.673 106.874 165.78 106.874 165.889C106.874 165.997 106.849 166.104 106.801 166.201L104.301 173.601C104.244 173.742 104.147 173.864 104.023 173.953C103.899 174.042 103.753 174.093 103.601 174.101Z" fill="#4C9AFF"/>
<path d="M108.4 172.701C108.292 172.717 108.181 172.707 108.077 172.672C107.972 172.638 107.878 172.579 107.8 172.501C107.66 172.352 107.581 172.155 107.581 171.951C107.581 171.746 107.66 171.549 107.8 171.401L109.5 169.501L107.8 167.601C107.653 167.436 107.571 167.222 107.571 167.001C107.571 166.779 107.653 166.566 107.8 166.401C107.882 166.322 107.98 166.261 108.088 166.222C108.195 166.184 108.31 166.169 108.423 166.179C108.537 166.188 108.647 166.222 108.747 166.277C108.846 166.333 108.933 166.409 109 166.501L111.2 168.901C111.341 169.049 111.42 169.246 111.42 169.451C111.42 169.655 111.341 169.852 111.2 170.001L109 172.501L108.4 172.701Z" fill="#4C9AFF"/>
<path d="M101.3 172.701L100.7 172.501L98.5004 170.001C98.4039 169.834 98.353 169.644 98.353 169.451C98.353 169.258 98.4039 169.068 98.5004 168.901L100.7 166.501C100.768 166.409 100.855 166.333 100.954 166.277C101.054 166.222 101.164 166.188 101.278 166.179C101.391 166.169 101.506 166.184 101.613 166.222C101.72 166.261 101.818 166.322 101.9 166.401C102.062 166.553 102.162 166.76 102.181 166.982C102.199 167.203 102.135 167.424 102 167.601L100.3 169.501L102 171.401C102.128 171.562 102.189 171.766 102.171 171.971C102.152 172.176 102.055 172.365 101.9 172.501C101.823 172.579 101.729 172.638 101.624 172.672C101.52 172.707 101.409 172.717 101.3 172.701Z" fill="#4C9AFF"/>
<path d="M42.1004 202.901H15.7004C15.4957 202.879 15.3046 202.788 15.159 202.643C15.0134 202.497 14.9221 202.306 14.9004 202.101C14.899 201.879 14.98 201.664 15.1277 201.498C15.2754 201.331 15.4794 201.226 15.7004 201.201H42.1004C42.3214 201.226 42.5254 201.331 42.6731 201.498C42.8208 201.664 42.9018 201.879 42.9004 202.101C42.8787 202.306 42.7874 202.497 42.6418 202.643C42.4962 202.788 42.3051 202.879 42.1004 202.901Z" fill="url(#paint22_linear)"/>
<path d="M32.8001 183.6H8.90011C8.69538 183.579 8.50428 183.487 8.35869 183.342C8.21311 183.196 8.12184 183.005 8.10011 182.8C8.09874 182.578 8.17971 182.363 8.32743 182.197C8.47515 182.031 8.67915 181.925 8.90011 181.9H32.8001C32.9141 181.9 33.027 181.923 33.1313 181.969C33.2355 182.016 33.3286 182.084 33.4043 182.169C33.4801 182.254 33.5367 182.355 33.5705 182.463C33.6043 182.572 33.6144 182.687 33.6001 182.8C33.6001 182.905 33.5794 183.01 33.5392 183.107C33.499 183.204 33.4401 183.292 33.3658 183.366C33.2915 183.44 33.2033 183.499 33.1063 183.54C33.0092 183.58 32.9052 183.6 32.8001 183.6Z" fill="url(#paint23_linear)"/>
<path d="M252.6 191.801H226.2C225.988 191.801 225.785 191.717 225.635 191.567C225.485 191.417 225.4 191.213 225.4 191.001C225.4 190.789 225.485 190.586 225.635 190.435C225.785 190.285 225.988 190.201 226.2 190.201H252.6C252.813 190.201 253.016 190.285 253.166 190.435C253.316 190.586 253.4 190.789 253.4 191.001C253.4 191.213 253.316 191.417 253.166 191.567C253.016 191.717 252.813 191.801 252.6 191.801Z" fill="url(#paint24_linear)"/>
<path d="M262.1 202.901H238.2C237.996 202.879 237.805 202.788 237.659 202.643C237.513 202.497 237.422 202.306 237.4 202.101C237.399 201.879 237.48 201.664 237.628 201.498C237.775 201.331 237.979 201.226 238.2 201.201H262.1C262.339 201.201 262.568 201.296 262.737 201.465C262.906 201.634 263 201.862 263 202.101C262.976 202.322 262.87 202.526 262.704 202.674C262.538 202.822 262.323 202.903 262.1 202.901Z" fill="url(#paint25_linear)"/>
</g>
<defs>
<linearGradient id="paint0_linear" x1="139.95" y1="167.4" x2="214.17" y2="167.4" gradientUnits="userSpaceOnUse">
<stop stop-color="#00A3BF"/>
<stop offset="0.85" stop-color="#00B8D9"/>
</linearGradient>
<linearGradient id="paint1_linear" x1="108.84" y1="121.67" x2="108.84" y2="59.4504" gradientUnits="userSpaceOnUse">
<stop stop-color="#00B8D9"/>
<stop offset="0.09" stop-color="#15BFDD"/>
<stop offset="0.36" stop-color="#4BD2E8"/>
<stop offset="0.56" stop-color="#6CDEEF"/>
<stop offset="0.66" stop-color="#79E2F2"/>
</linearGradient>
<linearGradient id="paint2_linear" x1="6814.82" y1="11534.2" x2="6814.82" y2="7664.69" gradientUnits="userSpaceOnUse">
<stop stop-color="#00A3BF"/>
<stop offset="0.85" stop-color="#00B8D9"/>
</linearGradient>
<linearGradient id="paint3_linear" x1="82.6703" y1="121.861" x2="157.62" y2="121.861" gradientUnits="userSpaceOnUse">
<stop offset="0.1" stop-color="#B3F5FF"/>
<stop offset="0.48" stop-color="#B3F5FF"/>
<stop offset="0.54" stop-color="#B3F5FF" stop-opacity="0.8"/>
<stop offset="0.64" stop-color="#B3F5FF" stop-opacity="0.52"/>
<stop offset="0.73" stop-color="#B3F5FF" stop-opacity="0.29"/>
<stop offset="0.81" stop-color="#B3F5FF" stop-opacity="0.13"/>
<stop offset="0.87" stop-color="#B3F5FF" stop-opacity="0.04"/>
<stop offset="0.9" stop-color="#B3F5FF" stop-opacity="0"/>
</linearGradient>
<linearGradient id="paint4_linear" x1="132.62" y1="158.34" x2="132.62" y2="104.71" gradientUnits="userSpaceOnUse">
<stop stop-color="#0065FF"/>
<stop offset="0.23" stop-color="#0065FF"/>
<stop offset="0.26" stop-color="#0065FF" stop-opacity="0.97"/>
<stop offset="0.31" stop-color="#0065FF" stop-opacity="0.89"/>
<stop offset="0.38" stop-color="#0065FF" stop-opacity="0.75"/>
<stop offset="0.45" stop-color="#0065FF" stop-opacity="0.56"/>
<stop offset="0.53" stop-color="#0065FF" stop-opacity="0.31"/>
<stop offset="0.61" stop-color="#0065FF" stop-opacity="0.02"/>
<stop offset="0.62" stop-color="#0065FF" stop-opacity="0"/>
</linearGradient>
<linearGradient id="paint5_linear" x1="175.26" y1="170.93" x2="186.51" y2="170.93" gradientUnits="userSpaceOnUse">
<stop offset="0.1" stop-color="#B3F5FF" stop-opacity="0"/>
<stop offset="0.13" stop-color="#B3F5FF" stop-opacity="0.04"/>
<stop offset="0.19" stop-color="#B3F5FF" stop-opacity="0.13"/>
<stop offset="0.27" stop-color="#B3F5FF" stop-opacity="0.29"/>
<stop offset="0.36" stop-color="#B3F5FF" stop-opacity="0.52"/>
<stop offset="0.46" stop-color="#B3F5FF" stop-opacity="0.8"/>
<stop offset="0.52" stop-color="#B3F5FF"/>
<stop offset="0.9" stop-color="#B3F5FF"/>
</linearGradient>
<linearGradient id="paint6_linear" x1="4627.67" y1="479.732" x2="5279.1" y2="479.732" gradientUnits="userSpaceOnUse">
<stop offset="0.1" stop-color="#B3F5FF" stop-opacity="0"/>
<stop offset="0.13" stop-color="#B3F5FF" stop-opacity="0.04"/>
<stop offset="0.19" stop-color="#B3F5FF" stop-opacity="0.13"/>
<stop offset="0.27" stop-color="#B3F5FF" stop-opacity="0.29"/>
<stop offset="0.36" stop-color="#B3F5FF" stop-opacity="0.52"/>
<stop offset="0.46" stop-color="#B3F5FF" stop-opacity="0.8"/>
<stop offset="0.52" stop-color="#B3F5FF"/>
<stop offset="0.9" stop-color="#B3F5FF"/>
</linearGradient>
<linearGradient id="paint7_linear" x1="2964.87" y1="2065.53" x2="3697.45" y2="2065.53" gradientUnits="userSpaceOnUse">
<stop offset="0.1" stop-color="#B3F5FF"/>
<stop offset="0.48" stop-color="#B3F5FF"/>
<stop offset="0.54" stop-color="#B3F5FF" stop-opacity="0.8"/>
<stop offset="0.64" stop-color="#B3F5FF" stop-opacity="0.52"/>
<stop offset="0.73" stop-color="#B3F5FF" stop-opacity="0.29"/>
<stop offset="0.81" stop-color="#B3F5FF" stop-opacity="0.13"/>
<stop offset="0.87" stop-color="#B3F5FF" stop-opacity="0.04"/>
<stop offset="0.9" stop-color="#B3F5FF" stop-opacity="0"/>
</linearGradient>
<linearGradient id="paint8_linear" x1="0.700195" y1="192.171" x2="49.2502" y2="192.171" gradientUnits="userSpaceOnUse">
<stop offset="0.07" stop-color="#00A3BF" stop-opacity="0"/>
<stop offset="0.17" stop-color="#00A4C1" stop-opacity="0.06"/>
<stop offset="0.35" stop-color="#00A8C5" stop-opacity="0.23"/>
<stop offset="0.59" stop-color="#00ADCC" stop-opacity="0.5"/>
<stop offset="0.89" stop-color="#00B5D5" stop-opacity="0.86"/>
<stop offset="1" stop-color="#00B8D9"/>
</linearGradient>
<linearGradient id="paint9_linear" x1="7868.22" y1="9564.65" x2="7868.22" y2="5961.9" gradientUnits="userSpaceOnUse">
<stop offset="0.1" stop-color="#B3F5FF" stop-opacity="0"/>
<stop offset="0.13" stop-color="#B3F5FF" stop-opacity="0.04"/>
<stop offset="0.19" stop-color="#B3F5FF" stop-opacity="0.13"/>
<stop offset="0.27" stop-color="#B3F5FF" stop-opacity="0.29"/>
<stop offset="0.36" stop-color="#B3F5FF" stop-opacity="0.52"/>
<stop offset="0.46" stop-color="#B3F5FF" stop-opacity="0.8"/>
<stop offset="0.52" stop-color="#B3F5FF"/>
<stop offset="0.9" stop-color="#B3F5FF"/>
</linearGradient>
<linearGradient id="paint10_linear" x1="3972.58" y1="408.076" x2="7008.59" y2="408.076" gradientUnits="userSpaceOnUse">
<stop offset="0.1" stop-color="#B3F5FF" stop-opacity="0"/>
<stop offset="0.13" stop-color="#B3F5FF" stop-opacity="0.04"/>
<stop offset="0.19" stop-color="#B3F5FF" stop-opacity="0.13"/>
<stop offset="0.27" stop-color="#B3F5FF" stop-opacity="0.29"/>
<stop offset="0.36" stop-color="#B3F5FF" stop-opacity="0.52"/>
<stop offset="0.46" stop-color="#B3F5FF" stop-opacity="0.8"/>
<stop offset="0.52" stop-color="#B3F5FF"/>
<stop offset="0.9" stop-color="#B3F5FF"/>
</linearGradient>
<linearGradient id="paint11_linear" x1="9738.81" y1="2717.58" x2="9738.81" y2="2511.08" gradientUnits="userSpaceOnUse">
<stop offset="0.1" stop-color="#B3F5FF" stop-opacity="0"/>
<stop offset="0.13" stop-color="#B3F5FF" stop-opacity="0.04"/>
<stop offset="0.19" stop-color="#B3F5FF" stop-opacity="0.13"/>
<stop offset="0.27" stop-color="#B3F5FF" stop-opacity="0.29"/>
<stop offset="0.36" stop-color="#B3F5FF" stop-opacity="0.52"/>
<stop offset="0.46" stop-color="#B3F5FF" stop-opacity="0.8"/>
<stop offset="0.52" stop-color="#B3F5FF"/>
<stop offset="0.9" stop-color="#B3F5FF"/>
</linearGradient>
<linearGradient id="paint12_linear" x1="184.73" y1="165.4" x2="184.73" y2="133.39" gradientUnits="userSpaceOnUse">
<stop offset="0.18" stop-color="#4C9AFF" stop-opacity="0"/>
<stop offset="0.25" stop-color="#4C9AFF" stop-opacity="0.02"/>
<stop offset="0.33" stop-color="#4C9AFF" stop-opacity="0.07"/>
<stop offset="0.41" stop-color="#4C9AFF" stop-opacity="0.15"/>
<stop offset="0.49" stop-color="#4C9AFF" stop-opacity="0.27"/>
<stop offset="0.57" stop-color="#4C9AFF" stop-opacity="0.42"/>
<stop offset="0.66" stop-color="#4C9AFF" stop-opacity="0.61"/>
<stop offset="0.74" stop-color="#4C9AFF" stop-opacity="0.82"/>
<stop offset="0.8" stop-color="#4C9AFF"/>
<stop offset="1" stop-color="#4C9AFF"/>
</linearGradient>
<linearGradient id="paint13_linear" x1="5813.31" y1="8604.84" x2="5813.31" y2="4585.41" gradientUnits="userSpaceOnUse">
<stop offset="0.1" stop-color="#B3F5FF" stop-opacity="0"/>
<stop offset="0.13" stop-color="#B3F5FF" stop-opacity="0.04"/>
<stop offset="0.19" stop-color="#B3F5FF" stop-opacity="0.13"/>
<stop offset="0.27" stop-color="#B3F5FF" stop-opacity="0.29"/>
<stop offset="0.36" stop-color="#B3F5FF" stop-opacity="0.52"/>
<stop offset="0.46" stop-color="#B3F5FF" stop-opacity="0.8"/>
<stop offset="0.52" stop-color="#B3F5FF"/>
<stop offset="0.9" stop-color="#B3F5FF"/>
</linearGradient>
<linearGradient id="paint14_linear" x1="6536.14" y1="1368.42" x2="14872.6" y2="1368.42" gradientUnits="userSpaceOnUse">
<stop offset="0.1" stop-color="#B3F5FF" stop-opacity="0"/>
<stop offset="0.13" stop-color="#B3F5FF" stop-opacity="0.04"/>
<stop offset="0.19" stop-color="#B3F5FF" stop-opacity="0.13"/>
<stop offset="0.27" stop-color="#B3F5FF" stop-opacity="0.29"/>
<stop offset="0.36" stop-color="#B3F5FF" stop-opacity="0.52"/>
<stop offset="0.46" stop-color="#B3F5FF" stop-opacity="0.8"/>
<stop offset="0.52" stop-color="#B3F5FF"/>
<stop offset="0.9" stop-color="#B3F5FF"/>
</linearGradient>
<linearGradient id="paint15_linear" x1="184.4" y1="141.23" x2="184.4" y2="92.33" gradientUnits="userSpaceOnUse">
<stop offset="0.1" stop-color="#00A3BF" stop-opacity="0"/>
<stop offset="0.14" stop-color="#00A3BF" stop-opacity="0.05"/>
<stop offset="0.22" stop-color="#00A3BF" stop-opacity="0.18"/>
<stop offset="0.31" stop-color="#00A3BF" stop-opacity="0.39"/>
<stop offset="0.42" stop-color="#00A3BF" stop-opacity="0.68"/>
<stop offset="0.52" stop-color="#00A3BF"/>
<stop offset="0.9" stop-color="#00A3BF"/>
</linearGradient>
<linearGradient id="paint16_linear" x1="3154.65" y1="998.45" x2="3154.65" y2="893.692" gradientUnits="userSpaceOnUse">
<stop offset="0.18" stop-color="#4C9AFF" stop-opacity="0"/>
<stop offset="0.25" stop-color="#4C9AFF" stop-opacity="0.02"/>
<stop offset="0.33" stop-color="#4C9AFF" stop-opacity="0.07"/>
<stop offset="0.41" stop-color="#4C9AFF" stop-opacity="0.15"/>
<stop offset="0.49" stop-color="#4C9AFF" stop-opacity="0.27"/>
<stop offset="0.57" stop-color="#4C9AFF" stop-opacity="0.42"/>
<stop offset="0.66" stop-color="#4C9AFF" stop-opacity="0.61"/>
<stop offset="0.74" stop-color="#4C9AFF" stop-opacity="0.82"/>
<stop offset="0.8" stop-color="#4C9AFF"/>
<stop offset="1" stop-color="#4C9AFF"/>
</linearGradient>
<linearGradient id="paint17_linear" x1="230.65" y1="192.651" x2="279.2" y2="192.651" gradientUnits="userSpaceOnUse">
<stop stop-color="#00B8D9"/>
<stop offset="0.11" stop-color="#00B5D5" stop-opacity="0.86"/>
<stop offset="0.41" stop-color="#00ADCC" stop-opacity="0.5"/>
<stop offset="0.65" stop-color="#00A8C5" stop-opacity="0.23"/>
<stop offset="0.83" stop-color="#00A4C1" stop-opacity="0.06"/>
<stop offset="0.93" stop-color="#00A3BF" stop-opacity="0"/>
</linearGradient>
<linearGradient id="paint18_linear" x1="93.98" y1="85.8697" x2="133.61" y2="85.8697" gradientUnits="userSpaceOnUse">
<stop stop-color="#B3F5FF"/>
<stop offset="0.81" stop-color="#B3F5FF" stop-opacity="0"/>
</linearGradient>
<linearGradient id="paint19_linear" x1="139.82" y1="23.4404" x2="139.82" y2="0.400391" gradientUnits="userSpaceOnUse">
<stop offset="0.1" stop-color="#0065FF"/>
<stop offset="0.48" stop-color="#0065FF"/>
<stop offset="0.54" stop-color="#0065FF" stop-opacity="0.8"/>
<stop offset="0.64" stop-color="#0065FF" stop-opacity="0.52"/>
<stop offset="0.73" stop-color="#0065FF" stop-opacity="0.29"/>
<stop offset="0.81" stop-color="#0065FF" stop-opacity="0.13"/>
<stop offset="0.87" stop-color="#0065FF" stop-opacity="0.04"/>
<stop offset="0.9" stop-color="#0065FF" stop-opacity="0"/>
</linearGradient>
<linearGradient id="paint20_linear" x1="67.6603" y1="169.631" x2="111.37" y2="169.631" gradientUnits="userSpaceOnUse">
<stop stop-color="#B3F5FF" stop-opacity="0"/>
<stop offset="0.7" stop-color="#B3F5FF"/>
</linearGradient>
<linearGradient id="paint21_linear" x1="6446.72" y1="5304.44" x2="7364.43" y2="4002.92" gradientUnits="userSpaceOnUse">
<stop stop-color="#B3F5FF" stop-opacity="0"/>
<stop offset="0.7" stop-color="#B3F5FF"/>
</linearGradient>
<linearGradient id="paint22_linear" x1="14.8904" y1="202.051" x2="42.8904" y2="202.051" gradientUnits="userSpaceOnUse">
<stop offset="0.38" stop-color="#2684FF" stop-opacity="0"/>
<stop offset="0.39" stop-color="#2684FF" stop-opacity="0.02"/>
<stop offset="0.47" stop-color="#2684FF" stop-opacity="0.31"/>
<stop offset="0.55" stop-color="#2684FF" stop-opacity="0.56"/>
<stop offset="0.62" stop-color="#2684FF" stop-opacity="0.75"/>
<stop offset="0.69" stop-color="#2684FF" stop-opacity="0.89"/>
<stop offset="0.74" stop-color="#2684FF" stop-opacity="0.97"/>
<stop offset="0.77" stop-color="#2684FF"/>
<stop offset="1" stop-color="#2684FF"/>
</linearGradient>
<linearGradient id="paint23_linear" x1="196.592" y1="491.916" x2="848.022" y2="491.916" gradientUnits="userSpaceOnUse">
<stop offset="0.1" stop-color="#B3F5FF" stop-opacity="0"/>
<stop offset="0.13" stop-color="#B3F5FF" stop-opacity="0.04"/>
<stop offset="0.19" stop-color="#B3F5FF" stop-opacity="0.13"/>
<stop offset="0.27" stop-color="#B3F5FF" stop-opacity="0.29"/>
<stop offset="0.36" stop-color="#B3F5FF" stop-opacity="0.52"/>
<stop offset="0.46" stop-color="#B3F5FF" stop-opacity="0.8"/>
<stop offset="0.52" stop-color="#B3F5FF"/>
<stop offset="0.9" stop-color="#B3F5FF"/>
</linearGradient>
<linearGradient id="paint24_linear" x1="225.39" y1="191.011" x2="253.39" y2="191.011" gradientUnits="userSpaceOnUse">
<stop offset="0.38" stop-color="#0065FF" stop-opacity="0"/>
<stop offset="0.45" stop-color="#0065FF" stop-opacity="0.08"/>
<stop offset="0.59" stop-color="#0065FF" stop-opacity="0.3"/>
<stop offset="0.8" stop-color="#0065FF" stop-opacity="0.64"/>
<stop offset="1" stop-color="#0065FF"/>
</linearGradient>
<linearGradient id="paint25_linear" x1="6297.18" y1="-218.911" x2="6951.26" y2="-218.911" gradientUnits="userSpaceOnUse">
<stop offset="0.1" stop-color="#B3F5FF" stop-opacity="0"/>
<stop offset="0.13" stop-color="#B3F5FF" stop-opacity="0.04"/>
<stop offset="0.19" stop-color="#B3F5FF" stop-opacity="0.13"/>
<stop offset="0.27" stop-color="#B3F5FF" stop-opacity="0.29"/>
<stop offset="0.36" stop-color="#B3F5FF" stop-opacity="0.52"/>
<stop offset="0.46" stop-color="#B3F5FF" stop-opacity="0.8"/>
<stop offset="0.52" stop-color="#B3F5FF"/>
<stop offset="0.9" stop-color="#B3F5FF"/>
</linearGradient>
<clipPath id="clip0">
<path d="M0.700195 0.400391H279.2V212.4H0.700195V0.400391Z" fill="white"/>
</clipPath>
</defs>
</svg>
