<svg width="202" height="215" viewBox="0 0 202 215" fill="none" xmlns="http://www.w3.org/2000/svg">
<g clip-path="url(#clip0)">
<path d="M0.299805 0.400391H201.9V214.1H0.299805V0.400391Z" fill="white" fill-opacity="0.01"/>
<path d="M201.799 0.751725L0.499023 0.400391L0.201148 171.07L201.501 171.421L201.799 0.751725Z" fill="url(#paint0_linear)"/>
<path d="M21.7994 79.3008C21.6106 90.7026 18.9493 101.928 13.9994 112.201C10.452 119.366 5.86958 125.97 0.399414 131.801V171.101H108.199L21.7994 79.3008Z" fill="#0057D8"/>
<path d="M180.565 20.3141L21.8652 20.0371L21.7347 94.827L180.434 95.104L180.565 20.3141Z" fill="#253858"/>
<path d="M159.899 41.7H94.6994C81.7994 41.7 85.3994 31 72.6994 31H49.0994C47.9059 31 46.7613 31.4741 45.9174 32.318C45.0735 33.1619 44.5994 34.3065 44.5994 35.5V41.7L44.3994 131.4L164.299 131.6V46.2C164.3 45.0237 163.839 43.894 163.017 43.0529C162.195 42.2118 161.075 41.7261 159.899 41.7Z" fill="#505F79"/>
<path d="M164.4 50.3995H92.1996C77.9996 50.1995 81.9996 38.3995 67.8996 38.3995H41.7996C41.1478 38.3862 40.4998 38.5031 39.8937 38.7433C39.2877 38.9836 38.7356 39.3425 38.27 39.7988C37.8043 40.2551 37.4344 40.7998 37.1819 41.4009C36.9295 42.002 36.7995 42.6475 36.7996 43.2995V50.1995L36.5996 149.599L169.2 149.899V55.2995C169.2 54.017 168.697 52.7856 167.8 51.8695C166.903 50.9534 165.682 50.4256 164.4 50.3995Z" fill="#3DC7DC"/>
<path d="M168.1 58.9012H90.7C75.4 58.8012 79.7 46.2012 64.6 46.2012H36.5C35.0944 46.2012 33.7463 46.7596 32.7523 47.7535C31.7584 48.7474 31.2 50.0955 31.2 51.5012V58.9012L31 165.401L173.2 165.601L173.4 64.2012C173.4 62.7955 172.842 61.4474 171.848 60.4535C170.854 59.4596 169.506 58.9012 168.1 58.9012Z" fill="#6BD5E5"/>
<path d="M170.3 68.2008H88.9002C72.9002 68.1008 77.4002 54.8008 61.5002 54.8008H32.0002C30.515 54.8008 29.0906 55.3908 28.0404 56.441C26.9902 57.4912 26.4002 58.9156 26.4002 60.4008V68.2008L26.2002 180.401L175.7 180.601L175.9 74.0008C175.927 73.2487 175.802 72.499 175.533 71.7963C175.263 71.0936 174.855 70.4524 174.332 69.911C173.81 69.3697 173.183 68.9392 172.49 68.6453C171.798 68.3515 171.053 68.2003 170.3 68.2008Z" fill="#9CE3EE"/>
<path d="M180.461 79.5153L21.7617 79.2383L21.527 213.748L180.227 214.025L180.461 79.5153Z" fill="#3384FF"/>
<path d="M128.178 184.624L87.7785 184.554C86.2321 184.551 84.9763 185.802 84.9736 187.349L84.9691 189.969C84.9664 191.515 86.2178 192.771 87.7642 192.774L128.164 192.844C129.711 192.847 130.966 191.595 130.969 190.049L130.974 187.429C130.976 185.883 129.725 184.627 128.178 184.624Z" fill="#FAFBFC"/>
<path d="M73.1996 192.8C75.464 192.8 77.2996 190.964 77.2996 188.7C77.2996 186.435 75.464 184.6 73.1996 184.6C70.9352 184.6 69.0996 186.435 69.0996 188.7C69.0996 190.964 70.9352 192.8 73.1996 192.8Z" fill="#FAFBFC"/>
<path d="M131.1 162.4H70.8995C70.7594 162.4 70.6206 162.372 70.4923 162.315C70.3639 162.259 70.2489 162.176 70.1546 162.072C70.0603 161.969 69.9889 161.846 69.9449 161.713C69.901 161.58 69.8855 161.439 69.8995 161.3V114.1C69.8953 113.968 69.92 113.837 69.9719 113.716C70.0237 113.595 70.1014 113.487 70.1995 113.4C70.3897 113.219 70.6379 113.113 70.8995 113.1H131.2C131.457 113.122 131.699 113.235 131.882 113.418C132.064 113.6 132.177 113.842 132.2 114.1V161.4C132.205 161.546 132.182 161.693 132.13 161.83C132.079 161.967 132 162.093 131.9 162.2L131.1 162.4ZM71.8995 160.4H130.1V115.2H71.8995V160.4Z" fill="#0057D8"/>
<path d="M111.9 147.6C111.768 147.605 111.638 147.58 111.517 147.528C111.396 147.476 111.288 147.399 111.2 147.3C111.017 147.113 110.914 146.862 110.914 146.6C110.914 146.339 111.017 146.087 111.2 145.9L119.7 138.1L111.9 129.6C111.764 129.398 111.707 129.153 111.739 128.911C111.771 128.669 111.891 128.447 112.075 128.287C112.26 128.127 112.496 128.041 112.74 128.043C112.984 128.045 113.219 128.137 113.4 128.3L121.9 137.5C122.049 137.709 122.12 137.963 122.102 138.218C122.084 138.474 121.977 138.715 121.8 138.9L112.6 147.4C112.4 147.553 112.15 147.624 111.9 147.6Z" fill="#0057D8"/>
<path d="M89.4998 147.5C89.3601 147.492 89.224 147.452 89.1025 147.383C88.981 147.313 88.8774 147.217 88.7998 147.1L80.2998 137.9C80.1508 137.692 80.0793 137.438 80.0975 137.182C80.1158 136.926 80.2227 136.685 80.3998 136.5L89.5998 128C89.8083 127.851 90.0622 127.779 90.3178 127.798C90.5734 127.816 90.8146 127.923 90.9998 128.1C91.183 128.287 91.2857 128.538 91.2857 128.8C91.2857 129.062 91.183 129.313 90.9998 129.5L82.4998 137.3L90.2998 145.8C90.4488 146.008 90.5204 146.262 90.5021 146.518C90.4839 146.774 90.377 147.015 90.1998 147.2C90.1122 147.298 90.0041 147.376 89.8831 147.428C89.7622 147.48 89.6313 147.504 89.4998 147.5Z" fill="#0057D8"/>
<path d="M97.4 150.8H97.1C96.8631 150.711 96.6641 150.543 96.5366 150.325C96.4091 150.106 96.3608 149.85 96.4 149.6L103.1 125.4C103.139 125.269 103.204 125.147 103.291 125.04C103.378 124.934 103.484 124.846 103.605 124.781C103.726 124.716 103.858 124.675 103.994 124.662C104.131 124.648 104.269 124.661 104.4 124.7C104.531 124.74 104.654 124.805 104.76 124.891C104.866 124.978 104.954 125.085 105.019 125.205C105.084 125.326 105.125 125.458 105.139 125.595C105.153 125.731 105.139 125.869 105.1 126L98.4 150.1C98.3112 150.296 98.1715 150.464 97.9956 150.587C97.8197 150.71 97.614 150.784 97.4 150.8Z" fill="#0057D8"/>
</g>
<defs>
<linearGradient id="paint0_linear" x1="8.10903" y1="178.87" x2="194.069" y2="-7.08995" gradientUnits="userSpaceOnUse">
<stop offset="0.21" stop-color="#0065FF"/>
<stop offset="1" stop-color="#4C9AFF"/>
</linearGradient>
<clipPath id="clip0">
<path d="M0.299805 0.400391H201.9V214.1H0.299805V0.400391Z" fill="white"/>
</clipPath>
</defs>
</svg>
