<svg width="230" height="187" viewBox="0 0 230 187" fill="none" xmlns="http://www.w3.org/2000/svg">
<g clip-path="url(#clip0)">
<path d="M0.399414 0H229.199V186.3H0.399414V0Z" fill="white" fill-opacity="0.01"/>
<path d="M228.799 84.9998L205.199 43.4998C204.887 42.9929 204.436 42.5864 203.9 42.3288C203.363 42.0713 202.764 41.9736 202.174 42.0474C201.583 42.1212 201.026 42.3634 200.57 42.7451C200.113 43.1267 199.776 43.6318 199.599 44.1998L195.999 57.0998C193.899 56.4998 191.699 55.8998 189.499 55.4998C178.047 53.2449 166.238 53.5491 154.917 56.3906C143.597 59.2321 133.044 64.5406 124.014 71.9364C114.985 79.3321 107.701 88.6323 102.685 99.1714C97.669 109.71 95.0444 121.228 94.999 132.9H134.499C134.523 127.056 135.838 121.29 138.348 116.013C140.858 110.735 144.502 106.077 149.02 102.371C153.538 98.665 158.819 96.0019 164.485 94.5721C170.151 93.1423 176.063 92.981 181.799 94.0998L185.599 95.0998V95.2998L181.799 109.2C180.999 111.8 183.799 114 186.499 111.8L227.999 88.1998C229.099 88.2998 229.599 86.3998 228.799 84.9998Z" fill="#42526E"/>
<path d="M127.8 133.001H134.5C134.56 126.122 136.385 119.373 139.8 113.401V61.8008C136.437 63.4344 133.196 65.3058 130.1 67.4008L127.8 69.0008V133.001Z" fill="#253858"/>
<path d="M112.399 0.999402L75.9991 37.2994C75.4993 37.789 75.1577 38.4171 75.0183 39.1028C74.879 39.7884 74.9484 40.5001 75.2175 41.1459C75.4866 41.7918 75.9431 42.3421 76.528 42.726C77.113 43.1098 77.7995 43.3096 78.4991 43.2994H94.9991V134.699H134.599V43.2994H151.099C151.799 43.3096 152.485 43.1098 153.07 42.726C153.655 42.3421 154.112 41.7918 154.381 41.1459C154.65 40.5001 154.719 39.7884 154.58 39.1028C154.441 38.4171 154.099 37.789 153.599 37.2994L117.299 0.999402C116.633 0.380874 115.758 0.0371094 114.849 0.0371094C113.94 0.0371094 113.065 0.380874 112.399 0.999402Z" fill="#64E6A4"/>
<path d="M94.999 109.6C99.2379 116.118 101.496 123.725 101.499 131.5H134.599V100C126.826 81.9713 112.747 67.3946 94.999 59V109.6Z" fill="url(#paint0_linear)"/>
<path d="M134.599 132.699H94.999V186.319H134.599V132.699Z" fill="url(#paint1_linear)"/>
<path d="M95.0996 133.4C95.0783 127.559 93.7652 121.795 91.2543 116.521C88.7433 111.247 85.0968 106.594 80.5761 102.895C76.0553 99.1964 70.7723 96.5435 65.1057 95.1266C59.4391 93.7097 53.5292 93.5639 47.7996 94.6997C43.6948 95.4982 39.7446 96.95 36.0996 98.9998C30.6996 102 10.2996 66.7998 24.1996 60.8998C36.2139 55.7231 49.3245 53.6071 62.3573 54.7412C75.3902 55.8753 87.9382 60.2241 98.8778 67.3983C109.817 74.5724 118.807 84.3477 125.041 95.8488C131.275 107.35 134.559 120.218 134.6 133.3L95.0996 133.4Z" fill="#0065FF"/>
<path d="M43.9989 95.8006L47.8989 109.801C48.5989 112.401 45.7989 114.601 43.0989 112.401L1.59893 88.7006C0.49893 88.8006 -0.00107053 86.9006 0.798929 85.4006L24.3989 44.0006C24.6788 43.4507 25.1214 43.0005 25.6664 42.7113C26.2115 42.4221 26.8324 42.308 27.4447 42.3845C28.0569 42.461 28.6307 42.7245 29.0878 43.139C29.5449 43.5534 29.863 44.0988 29.9989 44.7006L33.5989 57.7006L43.9989 95.8006Z" fill="#0065FF"/>
</g>
<defs>
<linearGradient id="paint0_linear" x1="114.849" y1="211.68" x2="114.849" y2="51.41" gradientUnits="userSpaceOnUse">
<stop stop-color="#6C798F"/>
<stop offset="1" stop-color="#6C798F" stop-opacity="0.1"/>
</linearGradient>
<linearGradient id="paint1_linear" x1="-11739.1" y1="69691.3" x2="-9583.64" y2="69691.3" gradientUnits="userSpaceOnUse">
<stop stop-color="#99C1FF" stop-opacity="0"/>
<stop offset="0.01" stop-color="#93BEFF" stop-opacity="0.04"/>
<stop offset="0.05" stop-color="#78ADFF" stop-opacity="0.22"/>
<stop offset="0.09" stop-color="#5E9EFF" stop-opacity="0.38"/>
<stop offset="0.14" stop-color="#4790FF" stop-opacity="0.53"/>
<stop offset="0.2" stop-color="#3484FF" stop-opacity="0.66"/>
<stop offset="0.25" stop-color="#247AFF" stop-opacity="0.77"/>
<stop offset="0.32" stop-color="#1672FF" stop-opacity="0.85"/>
<stop offset="0.4" stop-color="#0C6CFF" stop-opacity="0.92"/>
<stop offset="0.49" stop-color="#0568FF" stop-opacity="0.97"/>
<stop offset="0.63" stop-color="#0166FF" stop-opacity="0.99"/>
<stop offset="1" stop-color="#0065FF"/>
</linearGradient>
<clipPath id="clip0">
<path d="M0.399414 0H229.199V186.3H0.399414V0Z" fill="white"/>
</clipPath>
</defs>
</svg>
