<svg width="195" height="196" viewBox="0 0 195 196" fill="none" xmlns="http://www.w3.org/2000/svg">
<g clip-path="url(#clip0)">
<path d="M0 0.599609H194.5V195.1H0V0.599609Z" fill="white" fill-opacity="0.01"/>
<path d="M146.8 89.3996C148.71 89.3996 150.541 88.641 151.891 87.2908C153.241 85.9405 154 84.1092 154 82.1996V72.9996C154 71.09 153.241 69.2587 151.891 67.9084C150.541 66.5582 148.71 65.7996 146.8 65.7996C145.216 65.7951 143.677 65.2757 142.414 64.3196C141.151 63.3636 140.234 62.0228 139.8 60.4996C138.395 55.1721 136.276 50.0591 133.5 45.2996C132.729 43.9157 132.429 42.3184 132.645 40.749C132.862 39.1795 133.583 37.7231 134.7 36.5996C135.371 35.9307 135.904 35.1359 136.267 34.2607C136.631 33.3855 136.818 32.4472 136.818 31.4996C136.818 30.552 136.631 29.6137 136.267 28.7385C135.904 27.8633 135.371 27.0685 134.7 26.3996L128.2 19.8996C127.531 19.2284 126.736 18.6958 125.861 18.3324C124.986 17.969 124.048 17.7819 123.1 17.7819C122.152 17.7819 121.214 17.969 120.339 18.3324C119.464 18.6958 118.669 19.2284 118 19.8996C116.876 21.0166 115.42 21.7378 113.851 21.9542C112.281 22.1707 110.684 21.8707 109.3 21.0996C104.512 18.3822 99.4066 16.2662 94.1 14.7996C92.5848 14.3851 91.2468 13.4865 90.2899 12.2407C89.333 10.9949 88.8098 9.47043 88.8 7.89961C88.8133 6.94571 88.6368 5.99869 88.2809 5.11357C87.925 4.22845 87.3968 3.42288 86.7269 2.74367C86.0569 2.06446 85.2587 1.52515 84.3786 1.15708C83.4985 0.789012 82.554 0.599517 81.6 0.599609H72.4C70.4904 0.599609 68.6591 1.35818 67.3088 2.70844C65.9586 4.0587 65.2 5.89005 65.2 7.79961C65.2071 9.37469 64.6902 10.9074 63.7307 12.1566C62.7713 13.4057 61.4236 14.3003 59.9 14.6996C54.5996 16.184 49.4964 18.2991 44.7 20.9996C43.3361 21.8169 41.7373 22.1527 40.1599 21.9533C38.5824 21.7538 37.1175 21.0307 36 19.8996C35.3311 19.2284 34.5363 18.6958 33.6611 18.3324C32.7859 17.969 31.8476 17.7819 30.9 17.7819C29.9524 17.7819 29.0141 17.969 28.1389 18.3324C27.2637 18.6958 26.4689 19.2284 25.8 19.8996L19.3 26.3996C18.6288 27.0685 18.0962 27.8633 17.7328 28.7385C17.3694 29.6137 17.1823 30.552 17.1823 31.4996C17.1823 32.4472 17.3694 33.3855 17.7328 34.2607C18.0962 35.1359 18.6288 35.9307 19.3 36.5996C20.417 37.7231 21.1382 39.1795 21.3546 40.749C21.5711 42.3184 21.2711 43.9157 20.5 45.2996C17.7243 50.0591 15.6051 55.1721 14.2 60.4996C13.781 62.0313 12.8674 63.3815 11.6014 64.3401C10.3353 65.2986 8.78793 65.8118 7.2 65.7996C5.29044 65.7996 3.45909 66.5582 2.10883 67.9084C0.758569 69.2587 0 71.09 0 72.9996L0 82.1996C0 84.1092 0.758569 85.9405 2.10883 87.2908C3.45909 88.641 5.29044 89.3996 7.2 89.3996C8.80111 89.3932 10.3587 89.9207 11.6264 90.8987C12.8941 91.8767 13.7997 93.2493 14.2 94.7996C15.6237 100.089 17.7422 105.167 20.5 109.9C21.2711 111.284 21.5711 112.881 21.3546 114.45C21.1382 116.02 20.417 117.476 19.3 118.6C18.6288 119.269 18.0962 120.063 17.7328 120.939C17.3694 121.814 17.1823 122.752 17.1823 123.7C17.1823 124.647 17.3694 125.586 17.7328 126.461C18.0962 127.336 18.6288 128.131 19.3 128.8L25.8 135.3C26.4689 135.971 27.2637 136.503 28.1389 136.867C29.0141 137.23 29.9524 137.417 30.9 137.417C31.8476 137.417 32.7859 137.23 33.6611 136.867C34.5363 136.503 35.3311 135.971 36 135.3C37.1235 134.183 38.5799 133.461 40.1494 133.245C41.7188 133.029 43.316 133.328 44.7 134.1C49.476 136.842 54.5844 138.959 59.9 140.4C61.4236 140.799 62.7713 141.694 63.7307 142.943C64.6902 144.192 65.2071 145.725 65.2 147.3C65.2 149.209 65.9586 151.041 67.3088 152.391C68.6591 153.741 70.4904 154.5 72.4 154.5H81.6C83.5096 154.5 85.3409 153.741 86.6912 152.391C88.0414 151.041 88.8 149.209 88.8 147.3C88.8098 145.729 89.333 144.204 90.2899 142.959C91.2468 141.713 92.5848 140.814 94.1 140.4C99.4214 138.976 104.532 136.858 109.3 134.1C110.684 133.328 112.281 133.029 113.851 133.245C115.42 133.461 116.876 134.183 118 135.3C118.669 135.971 119.464 136.503 120.339 136.867C121.214 137.23 122.152 137.417 123.1 137.417C124.048 137.417 124.986 137.23 125.861 136.867C126.736 136.503 127.531 135.971 128.2 135.3L131.5 132.1L134.7 128.8C135.371 128.131 135.904 127.336 136.267 126.461C136.631 125.586 136.818 124.647 136.818 123.7C136.818 122.752 136.631 121.814 136.267 120.939C135.904 120.063 135.371 119.269 134.7 118.6C133.583 117.476 132.862 116.02 132.645 114.45C132.429 112.881 132.729 111.284 133.5 109.9C136.258 105.167 138.376 100.089 139.8 94.7996C140.216 93.2578 141.125 91.8948 142.39 90.9194C143.654 89.9441 145.203 89.4102 146.8 89.3996Z" fill="#0065FF"/>
<path d="M76.9 128.499L72.4 128.299C59.0947 127.118 46.7807 120.775 38.095 110.627C29.4093 100.479 25.0423 87.3333 25.9294 74.0053C26.8165 60.6773 32.8871 48.2264 42.8411 39.3191C52.7951 30.4118 65.8412 25.7562 79.1855 26.3493C92.5298 26.9424 105.111 32.737 114.236 42.4922C123.361 52.2475 128.303 65.1878 128.004 78.5419C127.705 91.8961 122.189 104.602 112.637 113.94C103.086 123.277 90.2574 128.503 76.9 128.499ZM77.0999 28.6989C64.4974 28.651 52.363 33.4706 43.2277 42.1524C34.0924 50.8342 28.6617 62.7077 28.0684 75.2964C27.4751 87.885 31.765 100.217 40.0432 109.719C48.3214 119.222 59.9488 125.161 72.5 126.299C79.6516 126.961 86.8614 126.04 93.6167 123.6C100.372 121.161 106.507 117.263 111.586 112.185C116.664 107.106 120.562 100.971 123.001 94.2157C125.441 87.4603 126.362 80.2506 125.7 73.0989C124.689 61.7164 119.707 51.052 111.627 42.9718C103.547 34.8915 92.8824 29.91 81.5 28.8989L77.0999 28.6989Z" fill="#2684FF"/>
<path opacity="0.2" d="M150.8 85.5992C150.077 84.2716 149.803 82.7457 150.02 81.2496C150.236 79.7535 150.931 78.3676 152 77.2992C153.227 76.0348 153.94 74.3597 154 72.5992C153.898 70.7598 153.094 69.0296 151.755 67.7647C150.416 66.4997 148.642 65.7963 146.8 65.7992C145.216 65.7947 143.677 65.2752 142.414 64.3192C141.151 63.3631 140.234 62.0224 139.8 60.4992L139.5 59.4992C138.185 59.8101 136.977 60.466 136 61.3992C134.938 62.4821 133.543 63.1787 132.039 63.378C130.535 63.5774 129.008 63.268 127.7 62.4992C123.177 59.8901 118.337 57.8736 113.3 56.4992C111.821 56.1175 110.513 55.249 109.588 54.0335C108.663 52.818 108.174 51.3265 108.2 49.7992C108.2 48.8846 108.018 47.9791 107.665 47.1353C107.312 46.2916 106.795 45.5265 106.144 44.8844C105.493 44.2424 104.72 43.7362 103.871 43.3954C103.023 43.0546 102.115 42.8859 101.2 42.8992H92.5C90.6701 42.8992 88.915 43.6261 87.621 44.9201C86.327 46.2141 85.6 47.9692 85.6 49.7992C85.6086 51.3222 85.113 52.8053 84.1905 54.0173C83.268 55.2292 81.9704 56.1019 80.5 56.4992C75.4307 57.8728 70.5578 59.8892 66 62.4992C64.6921 63.268 63.1647 63.5774 61.6607 63.378C60.1567 63.1787 58.7625 62.4821 57.7001 61.3992C57.0586 60.7521 56.2953 60.2386 55.4543 59.8881C54.6133 59.5376 53.7112 59.3571 52.8 59.3571C51.8889 59.3571 50.9868 59.5376 50.1458 59.8881C49.3048 60.2386 48.5415 60.7521 47.9001 61.3992L41.8 67.4992C41.153 68.1406 40.6394 68.9039 40.289 69.7449C39.9385 70.5859 39.758 71.488 39.758 72.3992C39.758 73.3103 39.9385 74.2124 40.289 75.0534C40.6394 75.8944 41.153 76.6577 41.8 77.2992C42.883 78.3617 43.5796 79.7558 43.7789 81.2598C43.9782 82.7638 43.6689 84.2913 42.9001 85.5992C40.3314 90.1771 38.3172 95.0447 36.9001 100.099C36.5027 101.57 35.6301 102.867 34.4182 103.79C33.2062 104.712 31.7231 105.208 30.2001 105.199C28.3701 105.199 26.615 105.926 25.321 107.22C24.027 108.514 23.3 110.269 23.3 112.099V120.799C23.3 122.629 24.027 124.384 25.321 125.678C26.615 126.972 28.3701 127.699 30.2001 127.699C31.7231 127.691 33.2062 128.186 34.4182 129.109C35.6301 130.031 36.5027 131.329 36.9001 132.799C37.0001 133.299 37.2 133.799 37.3 134.299C38.4037 133.609 39.6717 133.227 40.9728 133.192C42.2739 133.156 43.5608 133.47 44.7001 134.099C49.476 136.841 54.5845 138.959 59.9001 140.399C61.4237 140.798 62.7713 141.693 63.7308 142.942C64.6903 144.191 65.2071 145.724 65.2 147.299C65.2 148.245 65.3863 149.181 65.7481 150.054C66.11 150.928 66.6403 151.722 67.3089 152.39C67.9775 153.059 68.7712 153.589 69.6447 153.951C70.5183 154.313 71.4545 154.499 72.4001 154.499H81.6C83.5096 154.499 85.341 153.741 86.6912 152.39C88.0415 151.04 88.8 149.209 88.8 147.299C88.8098 145.728 89.3331 144.204 90.2899 142.958C91.2468 141.712 92.5849 140.814 94.1001 140.399L98 139.199H94.8C90.5076 138.801 86.4172 137.189 83.0075 134.551C79.5977 131.913 77.0096 128.359 75.5458 124.304C74.082 120.249 73.8031 115.862 74.7417 111.654C75.6802 107.446 77.7975 103.593 80.8458 100.545C83.8941 97.4966 87.7474 95.3794 91.9549 94.4408C96.1624 93.5022 100.55 93.7811 104.605 95.2449C108.66 96.7087 112.214 99.2968 114.852 102.707C117.489 106.116 119.102 110.207 119.5 114.499C119.842 117.977 119.37 121.486 118.12 124.749C116.87 128.013 114.878 130.94 112.3 133.299C113.346 133.206 114.4 133.346 115.386 133.709C116.372 134.072 117.264 134.649 118 135.399C118.669 136.07 119.464 136.603 120.339 136.966C121.214 137.33 122.152 137.517 123.1 137.517C124.048 137.517 124.986 137.33 125.861 136.966C126.736 136.603 127.531 136.07 128.2 135.399L131.5 132.199L134.7 128.899C135.371 128.23 135.904 127.435 136.267 126.56C136.631 125.685 136.818 124.747 136.818 123.799C136.818 122.852 136.631 121.913 136.267 121.038C135.904 120.163 135.371 119.368 134.7 118.699C133.583 117.576 132.862 116.119 132.645 114.55C132.429 112.98 132.729 111.383 133.5 109.999C136.258 105.266 138.376 100.189 139.8 94.8992C140.216 93.3574 141.125 91.9943 142.39 91.019C143.654 90.0436 145.203 89.5098 146.8 89.4992C148.657 89.4745 150.438 88.7618 151.8 87.4992C151.509 86.8444 151.175 86.2097 150.8 85.5992Z" fill="url(#paint0_linear)"/>
<path d="M194.5 125.9V117.2C194.5 115.37 193.773 113.615 192.479 112.321C191.185 111.027 189.43 110.3 187.6 110.3C186.09 110.304 184.621 109.804 183.426 108.881C182.231 107.957 181.378 106.662 181 105.2C179.592 100.127 177.542 95.2542 174.9 90.7C174.177 89.3724 173.903 87.8465 174.12 86.3504C174.336 84.8543 175.031 83.4684 176.1 82.4C176.747 81.7585 177.261 80.9953 177.611 80.1542C177.962 79.3132 178.142 78.4111 178.142 77.5C178.142 76.5889 177.962 75.6868 177.611 74.8458C177.261 74.0048 176.747 73.2415 176.1 72.6L169.9 66.5C169.259 65.853 168.495 65.3394 167.654 64.9889C166.813 64.6384 165.911 64.458 165 64.458C164.089 64.458 163.187 64.6384 162.346 64.9889C161.505 65.3394 160.742 65.853 160.1 66.5C159.038 67.583 157.643 68.2795 156.139 68.4789C154.635 68.6782 153.108 68.3688 151.8 67.6C147.251 64.9728 142.376 62.9555 137.3 61.6C135.83 61.2027 134.532 60.3301 133.61 59.1181C132.687 57.9062 132.191 56.4231 132.2 54.9C132.2 53.07 131.473 51.315 130.179 50.021C128.885 48.727 127.13 48 125.3 48H116.6C114.77 48 113.015 48.727 111.721 50.021C110.427 51.315 109.7 53.07 109.7 54.9C109.709 56.4231 109.213 57.9062 108.29 59.1181C107.368 60.3301 106.07 61.2027 104.6 61.6C99.5307 62.9737 94.6578 64.99 90.1 67.6C88.7921 68.3688 87.2647 68.6782 85.7607 68.4789C84.2567 68.2795 82.8625 67.583 81.8 66.5C81.1585 65.853 80.3953 65.3394 79.5543 64.9889C78.7132 64.6384 77.8111 64.458 76.9 64.458C75.9889 64.458 75.0868 64.6384 74.2458 64.9889C73.4048 65.3394 72.6415 65.853 72 66.5L65.9 72.6C65.253 73.2415 64.7394 74.0048 64.3889 74.8458C64.0385 75.6868 63.858 76.5889 63.858 77.5C63.858 78.4111 64.0385 79.3132 64.3889 80.1542C64.7394 80.9953 65.253 81.7585 65.9 82.4C66.983 83.4625 67.6796 84.8566 67.8789 86.3606C68.0782 87.8646 67.7689 89.3921 67 90.7C64.39 95.2578 62.3737 100.131 61 105.2C60.6027 106.67 59.7301 107.968 58.5181 108.89C57.3062 109.813 55.8231 110.309 54.3 110.3C52.47 110.3 50.715 111.027 49.421 112.321C48.127 113.615 47.4 115.37 47.4 117.2V125.9C47.4 127.73 48.127 129.485 49.421 130.779C50.715 132.073 52.47 132.8 54.3 132.8C55.8231 132.791 57.3062 133.287 58.5181 134.21C59.7301 135.132 60.6027 136.43 61 137.9C62.3555 142.976 64.3728 147.851 67 152.4C67.7689 153.708 68.0782 155.235 67.8789 156.739C67.6796 158.243 66.983 159.638 65.9 160.7C65.253 161.341 64.7394 162.105 64.3889 162.946C64.0385 163.787 63.858 164.689 63.858 165.6C63.858 166.511 64.0385 167.413 64.3889 168.254C64.7394 169.095 65.253 169.859 65.9 170.5L72 176.7C72.6415 177.347 73.4048 177.861 74.2458 178.211C75.0868 178.562 75.9889 178.742 76.9 178.742C77.8111 178.742 78.7132 178.562 79.5543 178.211C80.3953 177.861 81.1585 177.347 81.8 176.7C82.8684 175.631 84.2543 174.936 85.7504 174.719C87.2465 174.503 88.7725 174.777 90.1 175.5C94.6543 178.142 99.5269 180.192 104.6 181.6C106.062 181.978 107.357 182.831 108.281 184.026C109.204 185.221 109.704 186.69 109.7 188.2C109.7 190.03 110.427 191.785 111.721 193.079C113.015 194.373 114.77 195.1 116.6 195.1H125.3C127.13 195.1 128.885 194.373 130.179 193.079C131.473 191.785 132.2 190.03 132.2 188.2C132.196 186.69 132.696 185.221 133.619 184.026C134.543 182.831 135.838 181.978 137.3 181.6C142.38 180.211 147.255 178.16 151.8 175.5C153.128 174.777 154.654 174.503 156.15 174.719C157.646 174.936 159.032 175.631 160.1 176.7C160.742 177.347 161.505 177.861 162.346 178.211C163.187 178.562 164.089 178.742 165 178.742C165.911 178.742 166.813 178.562 167.654 178.211C168.495 177.861 169.259 177.347 169.9 176.7L176.1 170.5C176.747 169.859 177.261 169.095 177.611 168.254C177.962 167.413 178.142 166.511 178.142 165.6C178.142 164.689 177.962 163.787 177.611 162.946C177.261 162.105 176.747 161.341 176.1 160.7C175.031 159.632 174.336 158.246 174.12 156.75C173.903 155.253 174.177 153.728 174.9 152.4C177.56 147.855 179.611 142.98 181 137.9C181.378 136.438 182.231 135.143 183.426 134.219C184.621 133.296 186.09 132.796 187.6 132.8C189.43 132.8 191.185 132.073 192.479 130.779C193.773 129.485 194.5 127.73 194.5 125.9ZM143.6 119.5C144.157 125.507 142.305 131.49 138.451 136.131C134.597 140.773 129.057 143.693 123.05 144.25C117.043 144.807 111.061 142.955 106.419 139.101C101.777 135.247 98.857 129.707 98.3 123.7C98.0243 120.726 98.337 117.726 99.2205 114.872C100.104 112.019 101.541 109.367 103.449 107.069C107.303 102.427 112.843 99.507 118.85 98.95C124.857 98.393 130.84 100.245 135.481 104.099C140.123 107.953 143.043 113.493 143.6 119.5Z" fill="#00C7E5"/>
<path d="M120.9 155.6H117.9C109.966 154.902 102.531 151.433 96.8987 145.801C91.2668 140.169 87.7977 132.734 87.1 124.8C86.6377 119.826 87.2773 114.811 88.9733 110.112C90.6693 105.413 93.38 101.145 96.9125 97.6127C100.445 94.0802 104.713 91.3695 109.412 89.6735C114.111 87.9775 119.126 87.3379 124.1 87.8001C132.034 88.4979 139.469 91.967 145.101 97.5989C150.733 103.231 154.202 110.666 154.9 118.6C155.301 123.312 154.72 128.056 153.195 132.533C151.669 137.009 149.232 141.12 146.037 144.607C142.841 148.093 138.958 150.879 134.631 152.789C130.305 154.698 125.629 155.69 120.9 155.7V155.6ZM121 89.6002C112.695 89.4951 104.674 92.6233 98.6335 98.3236C92.5926 104.024 89.0048 111.85 88.6282 120.147C88.2516 128.444 91.1159 136.563 96.6156 142.787C102.115 149.011 109.82 152.852 118.1 153.5C122.77 153.895 127.469 153.266 131.871 151.657C136.272 150.048 140.27 147.497 143.583 144.184C146.897 140.87 149.448 136.873 151.057 132.471C152.666 128.07 153.295 123.37 152.9 118.7C152.247 111.228 148.981 104.226 143.678 98.9222C138.374 93.6187 131.372 90.3535 123.9 89.7002L121 89.6002Z" fill="#00B8D9"/>
<path d="M160.3 56.6C168.75 56.6 175.6 49.75 175.6 41.3C175.6 32.85 168.75 26 160.3 26C151.85 26 145 32.85 145 41.3C145 49.75 151.85 56.6 160.3 56.6Z" fill="#00C7E5"/>
<path d="M40.8 174.899C49.25 174.899 56.1 168.049 56.1 159.599C56.1 151.149 49.25 144.299 40.8 144.299C32.35 144.299 25.5 151.149 25.5 159.599C25.5 168.049 32.35 174.899 40.8 174.899Z" fill="#0065FF"/>
</g>
<defs>
<linearGradient id="paint0_linear" x1="31.41" y1="155.019" x2="135.43" y2="50.9992" gradientUnits="userSpaceOnUse">
<stop stop-color="#091E42" stop-opacity="0.11"/>
<stop offset="0.09" stop-color="#091E42" stop-opacity="0.44"/>
<stop offset="0.19" stop-color="#091E42" stop-opacity="0.69"/>
<stop offset="0.32" stop-color="#091E42" stop-opacity="0.87"/>
<stop offset="0.5" stop-color="#091E42" stop-opacity="0.97"/>
<stop offset="1" stop-color="#091E42"/>
</linearGradient>
<clipPath id="clip0">
<path d="M0 0.599609H194.5V195.1H0V0.599609Z" fill="white"/>
</clipPath>
</defs>
</svg>
