<svg width="178" height="208" viewBox="0 0 178 208" fill="none" xmlns="http://www.w3.org/2000/svg">
<g clip-path="url(#clip0)">
<path d="M0.600098 0H178V207.2H0.600098V0Z" fill="white" fill-opacity="0.01"/>
<path d="M39.3002 83.9004C39.3001 89.0283 41.3303 93.9477 44.9469 97.583C48.5635 101.218 53.4723 103.274 58.6002 103.3C69.7047 103.327 80.3467 107.75 88.1988 115.602C96.0509 123.454 100.474 134.096 100.5 145.2V158.2C100.648 159.767 100.467 161.347 99.969 162.84C99.4709 164.332 98.6665 165.704 97.6075 166.868C96.5484 168.032 95.258 168.961 93.8189 169.597C92.3798 170.234 90.8237 170.562 89.2502 170.562C87.6767 170.562 86.1206 170.234 84.6815 169.597C83.2424 168.961 81.9519 168.032 80.8929 166.868C79.8339 165.704 79.0295 164.332 78.5314 162.84C78.0333 161.347 77.8523 159.767 78.0002 158.2V145.2C78.0002 140.055 75.9563 135.121 72.3181 131.483C68.6799 127.844 63.7454 125.8 58.6002 125.8C47.4957 125.774 36.8536 121.351 29.0016 113.499C21.1495 105.647 16.7266 95.0048 16.7002 83.9004H39.3002Z" fill="#42526E"/>
<path d="M28.0001 83.9992C38.4383 83.9992 46.9001 75.5374 46.9001 65.0992C46.9001 54.661 38.4383 46.1992 28.0001 46.1992C17.5619 46.1992 9.1001 54.661 9.1001 65.0992C9.1001 75.5374 17.5619 83.9992 28.0001 83.9992Z" stroke="#42526E" stroke-width="17.09" stroke-miterlimit="10"/>
<path d="M100.5 40.4004H78V145.23H100.5V40.4004Z" fill="#0065FF"/>
<g style="mix-blend-mode:multiply">
<path d="M82.8 115.201C80.5622 118.987 78.9419 123.105 78 127.401V145.201H100.5V142.701L100.2 141.301C99.2445 137.715 99.3487 133.929 100.5 130.401V98.8008C93.0955 102.378 86.9311 108.09 82.8 115.201Z" fill="#C1C7D0"/>
</g>
<path d="M89.2999 46.3C99.7381 46.3 108.2 37.8382 108.2 27.4C108.2 16.9618 99.7381 8.5 89.2999 8.5C78.8617 8.5 70.3999 16.9618 70.3999 27.4C70.3999 37.8382 78.8617 46.3 89.2999 46.3Z" stroke="#0065FF" stroke-width="17.09" stroke-miterlimit="10"/>
<path d="M139.3 83.9004C139.3 89.0456 137.256 93.9801 133.618 97.6183C129.98 101.256 125.045 103.3 119.9 103.3C108.796 103.327 98.1536 107.75 90.3016 115.602C82.4495 123.454 78.0266 134.096 78.0002 145.2V158.2C77.8523 159.767 78.0333 161.347 78.5314 162.84C79.0295 164.332 79.8339 165.704 80.8929 166.868C81.9519 168.032 83.2424 168.961 84.6815 169.597C86.1206 170.234 87.6767 170.562 89.2502 170.562C90.8237 170.562 92.3798 170.234 93.8189 169.597C95.258 168.961 96.5484 168.032 97.6075 166.868C98.6665 165.704 99.4709 164.332 99.969 162.84C100.467 161.347 100.648 159.767 100.5 158.2V145.2C100.5 140.055 102.544 135.121 106.182 131.483C109.821 127.844 114.755 125.8 119.9 125.8C131.005 125.774 141.647 121.351 149.499 113.499C157.351 105.647 161.774 95.0048 161.8 83.9004H139.3Z" fill="url(#paint0_linear)"/>
<path d="M150.6 91.3C161.038 91.3 169.5 82.8382 169.5 72.4C169.5 61.9618 161.038 53.5 150.6 53.5C140.162 53.5 131.7 61.9618 131.7 72.4C131.7 82.8382 140.162 91.3 150.6 91.3Z" stroke="url(#paint1_linear)" stroke-width="17.09" stroke-miterlimit="10"/>
<path d="M159.3 98.4004C160.955 93.7451 161.8 88.841 161.8 83.9004H139.3C139.301 87.9957 138.006 91.9862 135.6 95.3004C140.053 98.2331 145.268 99.7975 150.6 99.8004C153.555 99.7909 156.491 99.3185 159.3 98.4004Z" fill="url(#paint2_linear)"/>
<path d="M159.3 98.4004C160.955 93.7451 161.8 88.841 161.8 83.9004H139.3C139.301 87.9957 138.006 91.9862 135.6 95.3004C140.053 98.2331 145.268 99.7975 150.6 99.8004C153.555 99.7909 156.491 99.3185 159.3 98.4004Z" fill="url(#paint3_linear)"/>
<path d="M150.6 99.8008C145.268 99.7979 140.053 98.2335 135.6 95.3008C133.8 97.7789 131.44 99.7956 128.711 101.186C125.982 102.577 122.963 103.301 119.9 103.301C108.796 103.327 98.1535 107.75 90.3014 115.602C82.4494 123.454 78.0264 134.096 78 145.201V154.801C72.2564 157.376 67.57 161.843 64.7233 167.457C61.8765 173.071 61.0418 179.491 62.3584 185.647C63.675 191.802 67.0633 197.319 71.9575 201.277C76.8517 205.235 82.9556 207.394 89.25 207.394C95.5444 207.394 101.648 205.235 106.543 201.277C111.437 197.319 114.825 191.802 116.142 185.647C117.458 179.491 116.624 173.071 113.777 167.457C110.93 161.843 106.244 157.376 100.5 154.801V145.201C100.5 140.056 102.544 135.121 106.182 131.483C109.82 127.845 114.755 125.801 119.9 125.801C128.48 125.805 136.855 123.181 143.899 118.282C150.943 113.384 156.318 106.445 159.3 98.4008C156.491 99.3188 153.555 99.7912 150.6 99.8008ZM89.3 190.101C87.2629 190.101 85.2715 189.497 83.5777 188.365C81.8838 187.233 80.5637 185.624 79.7841 183.742C79.0045 181.86 78.8005 179.789 79.1979 177.791C79.5954 175.793 80.5764 173.958 82.0168 172.518C83.4573 171.077 85.2926 170.096 87.2906 169.699C89.2886 169.301 91.3596 169.505 93.2417 170.285C95.1238 171.064 96.7324 172.385 97.8642 174.078C98.996 175.772 99.6 177.764 99.6 179.801C99.6 182.533 98.5149 185.152 96.5832 187.084C94.6516 189.016 92.0318 190.101 89.3 190.101Z" fill="url(#paint4_linear)"/>
<path d="M150.6 83.9992C161.038 83.9992 169.5 75.5374 169.5 65.0992C169.5 54.661 161.038 46.1992 150.6 46.1992C140.162 46.1992 131.7 54.661 131.7 65.0992C131.7 75.5374 140.162 83.9992 150.6 83.9992Z" stroke="#79F2C0" stroke-width="17.09" stroke-miterlimit="10"/>
</g>
<defs>
<linearGradient id="paint0_linear" x1="78.0102" y1="126.7" x2="161.82" y2="126.7" gradientUnits="userSpaceOnUse">
<stop stop-color="#36B37E"/>
<stop offset="1" stop-color="#79F2C0"/>
</linearGradient>
<linearGradient id="paint1_linear" x1="123.15" y1="72.39" x2="177.96" y2="72.39" gradientUnits="userSpaceOnUse">
<stop stop-color="#00875A"/>
<stop offset="0.67" stop-color="#57D9A3"/>
</linearGradient>
<linearGradient id="paint2_linear" x1="2.66848e+06" y1="-353662" x2="2.67067e+06" y2="-353662" gradientUnits="userSpaceOnUse">
<stop stop-color="#36B37E"/>
<stop offset="1" stop-color="#79F2C0"/>
</linearGradient>
<linearGradient id="paint3_linear" x1="136.417" y1="108.156" x2="175.332" y2="68.6933" gradientUnits="userSpaceOnUse">
<stop stop-color="#57D9A3"/>
<stop offset="0.33" stop-color="#57D9A3"/>
<stop offset="1" stop-color="#00875A"/>
</linearGradient>
<linearGradient id="paint4_linear" x1="6226.91" y1="21736.1" x2="16782.7" y2="12549.9" gradientUnits="userSpaceOnUse">
<stop stop-color="#36B37E"/>
<stop offset="1" stop-color="#79F2C0"/>
</linearGradient>
<clipPath id="clip0">
<path d="M0.600098 0H178V207.2H0.600098V0Z" fill="white"/>
</clipPath>
</defs>
</svg>
