<svg width="220" height="192" viewBox="0 0 220 192" fill="none" xmlns="http://www.w3.org/2000/svg">
<g clip-path="url(#clip0)">
<path d="M0.299805 0.5H219.7V191.5H0.299805V0.5Z" fill="white" fill-opacity="0.01"/>
<path d="M214.5 0.5H5.4998C2.62792 0.5 0.299805 2.82812 0.299805 5.7V38.35C0.299805 41.2219 2.62792 43.55 5.4998 43.55H214.5C217.372 43.55 219.7 41.2219 219.7 38.35V5.7C219.7 2.82812 217.372 0.5 214.5 0.5Z" fill="url(#paint0_linear)"/>
<path d="M7.8998 0.5H5.4998C4.12068 0.5 2.79804 1.04786 1.82285 2.02304C0.84766 2.99823 0.299805 4.32087 0.299805 5.7L0.299805 38.4C0.299674 39.0782 0.434829 39.7497 0.697359 40.3751C0.959888 41.0004 1.34452 41.5672 1.82874 42.0421C2.31296 42.517 2.88705 42.8905 3.5174 43.1409C4.14774 43.3912 4.8217 43.5133 5.4998 43.5H7.8998V0.5Z" fill="#B3BAC5"/>
<path d="M130.2 21H23.5996V23H130.2V21Z" fill="#B3BAC5"/>
<path d="M214.5 50.0996H5.4998C2.62792 50.0996 0.299805 52.4277 0.299805 55.2996V87.9496C0.299805 90.8215 2.62792 93.1496 5.4998 93.1496H214.5C217.372 93.1496 219.7 90.8215 219.7 87.9496V55.2996C219.7 52.4277 217.372 50.0996 214.5 50.0996Z" fill="url(#paint1_linear)"/>
<path d="M5.4998 50.0996C4.12068 50.0996 2.79804 50.6475 1.82285 51.6227C0.84766 52.5978 0.299805 53.9205 0.299805 55.2996L0.299805 87.9996C0.299805 89.3787 0.84766 90.7014 1.82285 91.6766C2.79804 92.6518 4.12068 93.1996 5.4998 93.1996H7.8998V50.0996H5.4998Z" fill="#57D9A3"/>
<path d="M130.2 70.6992H23.5996V72.6992H130.2V70.6992Z" fill="#B3BAC5"/>
<path d="M214.5 99.8008H5.4998C2.62792 99.8008 0.299805 102.129 0.299805 105.001V137.651C0.299805 140.523 2.62792 142.851 5.4998 142.851H214.5C217.372 142.851 219.7 140.523 219.7 137.651V105.001C219.7 102.129 217.372 99.8008 214.5 99.8008Z" fill="url(#paint2_linear)"/>
<path d="M7.8998 99.8008H5.4998C4.12068 99.8008 2.79804 100.349 1.82285 101.324C0.84766 102.299 0.299805 103.622 0.299805 105.001L0.299805 137.601C0.299805 138.98 0.84766 140.303 1.82285 141.278C2.79804 142.253 4.12068 142.801 5.4998 142.801H7.8998V99.8008Z" fill="#57D9A3"/>
<path d="M130.2 120.301H23.5996V122.301H130.2V120.301Z" fill="#B3BAC5"/>
<path d="M193.2 9.40039H166.8C160.118 9.40039 154.7 14.8155 154.7 21.4954C154.7 28.1753 160.118 33.5904 166.8 33.5904H193.2C199.883 33.5904 205.3 28.1753 205.3 21.4954C205.3 14.8155 199.883 9.40039 193.2 9.40039Z" fill="#B3BAC5"/>
<path d="M193.2 59H166.8C160.118 59 154.7 64.4151 154.7 71.095C154.7 77.7749 160.118 83.19 166.8 83.19H193.2C199.883 83.19 205.3 77.7749 205.3 71.095C205.3 64.4151 199.883 59 193.2 59Z" fill="#57D9A3"/>
<path d="M193.2 108.6H166.8C160.118 108.6 154.7 114.015 154.7 120.695C154.7 127.374 160.118 132.79 166.8 132.79H193.2C199.883 132.79 205.3 127.374 205.3 120.695C205.3 114.015 199.883 108.6 193.2 108.6Z" fill="#57D9A3"/>
<path d="M214.5 148.4H5.4998C2.62792 148.4 0.299805 150.729 0.299805 153.6V186.25C0.299805 189.122 2.62792 191.45 5.4998 191.45H214.5C217.372 191.45 219.7 189.122 219.7 186.25V153.6C219.7 150.729 217.372 148.4 214.5 148.4Z" fill="url(#paint3_linear)"/>
<path d="M7.8998 148.4H5.4998C4.12068 148.4 2.79804 148.948 1.82285 149.923C0.84766 150.899 0.299805 152.221 0.299805 153.6L0.299805 186.3C0.299805 187.68 0.84766 189.002 1.82285 189.977C2.79804 190.953 4.12068 191.5 5.4998 191.5H7.8998V148.4Z" fill="#B3BAC5"/>
<path d="M130.2 169H23.5996V171H130.2V169Z" fill="#B3BAC5"/>
<path d="M193.2 157.301H166.8C160.118 157.301 154.7 162.716 154.7 169.396C154.7 176.076 160.118 181.491 166.8 181.491H193.2C199.883 181.491 205.3 176.076 205.3 169.396C205.3 162.716 199.883 157.301 193.2 157.301Z" fill="#B3BAC5"/>
<path d="M177.6 169.4C177.6 172.159 176.504 174.804 174.554 176.754C172.603 178.705 169.958 179.8 167.2 179.8C164.441 179.8 161.796 178.705 159.846 176.754C157.895 174.804 156.8 172.159 156.8 169.4C156.8 166.642 157.895 163.997 159.846 162.047C161.796 160.096 164.441 159 167.2 159C169.958 159 172.603 160.096 174.554 162.047C176.504 163.997 177.6 166.642 177.6 169.4ZM193.2 110.3C191.115 110.281 189.071 110.882 187.329 112.028C185.587 113.174 184.226 114.813 183.419 116.736C182.611 118.659 182.395 120.778 182.797 122.824C183.199 124.87 184.201 126.75 185.675 128.225C187.15 129.699 189.03 130.701 191.076 131.103C193.122 131.505 195.242 131.289 197.164 130.482C199.087 129.674 200.726 128.313 201.872 126.571C203.018 124.829 203.619 122.786 203.6 120.7C203.574 117.95 202.469 115.32 200.525 113.375C198.58 111.431 195.95 110.327 193.2 110.3ZM193.2 60.7005C191.143 60.7005 189.132 61.3104 187.422 62.4532C185.711 63.596 184.378 65.2202 183.591 67.1206C182.804 69.0209 182.598 71.112 182.999 73.1294C183.401 75.1468 184.391 76.9999 185.846 78.4544C187.3 79.9089 189.153 80.8994 191.171 81.3006C193.188 81.7019 195.279 81.496 197.18 80.7088C199.08 79.9217 200.704 78.5887 201.847 76.8784C202.99 75.1681 203.6 73.1574 203.6 71.1005C203.6 68.3422 202.504 65.6969 200.554 63.7466C198.603 61.7962 195.958 60.7005 193.2 60.7005ZM167.2 11.0005C165.119 10.9807 163.079 11.5796 161.339 12.7212C159.599 13.8629 158.238 15.4957 157.428 17.4125C156.618 19.3293 156.396 21.4436 156.789 23.4869C157.183 25.5303 158.175 27.4105 159.64 28.889C161.104 30.3675 162.975 31.3775 165.014 31.7908C167.054 32.2041 169.17 32.0021 171.094 31.2104C173.019 30.4187 174.665 29.073 175.823 27.3442C176.981 25.6154 177.6 23.5814 177.6 21.5005C177.613 20.1263 177.354 18.7632 176.837 17.4899C176.32 16.2165 175.556 15.0582 174.589 14.0818C173.622 13.1055 172.471 12.3305 171.203 11.8016C169.934 11.2727 168.574 11.0004 167.2 11.0005Z" fill="#DFE1E5"/>
</g>
<defs>
<linearGradient id="paint0_linear" x1="45.9198" y1="86.13" x2="174.12" y2="-42.08" gradientUnits="userSpaceOnUse">
<stop stop-color="#C1C7D0"/>
<stop offset="0.02" stop-color="#C3C9D1"/>
<stop offset="0.17" stop-color="#D3D6DC"/>
<stop offset="0.34" stop-color="#DCDEE3"/>
<stop offset="0.58" stop-color="#DFE1E5"/>
</linearGradient>
<linearGradient id="paint1_linear" x1="10009.3" y1="5873.47" x2="12094.9" y2="-4755.33" gradientUnits="userSpaceOnUse">
<stop stop-color="#C1C7D0"/>
<stop offset="0.02" stop-color="#C3C9D1"/>
<stop offset="0.17" stop-color="#D3D6DC"/>
<stop offset="0.34" stop-color="#DCDEE3"/>
<stop offset="0.58" stop-color="#DFE1E5"/>
</linearGradient>
<linearGradient id="paint2_linear" x1="10009.3" y1="8060.18" x2="12094.9" y2="-2568.62" gradientUnits="userSpaceOnUse">
<stop stop-color="#C1C7D0"/>
<stop offset="0.02" stop-color="#C3C9D1"/>
<stop offset="0.17" stop-color="#D3D6DC"/>
<stop offset="0.34" stop-color="#DCDEE3"/>
<stop offset="0.58" stop-color="#DFE1E5"/>
</linearGradient>
<linearGradient id="paint3_linear" x1="10009.3" y1="10203.2" x2="12094.7" y2="-425.703" gradientUnits="userSpaceOnUse">
<stop stop-color="#C1C7D0"/>
<stop offset="0.02" stop-color="#C3C9D1"/>
<stop offset="0.17" stop-color="#D3D6DC"/>
<stop offset="0.34" stop-color="#DCDEE3"/>
<stop offset="0.58" stop-color="#DFE1E5"/>
</linearGradient>
<clipPath id="clip0">
<path d="M0.299805 0.5H219.7V191.5H0.299805V0.5Z" fill="white"/>
</clipPath>
</defs>
</svg>
