<svg width="203" height="232" viewBox="0 0 203 232" fill="none" xmlns="http://www.w3.org/2000/svg">
<g clip-path="url(#clip0)">
<path d="M0.700195 0.5H202.3V231.6H0.700195V0.5Z" fill="white" fill-opacity="0.01"/>
<path d="M202.217 48.2517L0.916992 47.9004L0.671477 188.57L201.971 188.922L202.217 48.2517Z" fill="url(#paint0_linear)"/>
<path opacity="0.1" d="M0.700195 167.301V188.601H22.2002V126.801C20.309 134.307 17.5223 141.559 13.9002 148.401C10.288 155.216 5.85503 161.563 0.700195 167.301H0.700195Z" fill="#253858"/>
<path d="M180.982 67.9137L22.2822 67.6367L22.1517 142.427L180.851 142.704L180.982 67.9137Z" fill="#0049B0"/>
<path d="M152.6 17.4004H49.4004V168.34H152.6V17.4004Z" fill="#505F79"/>
<path d="M159.601 24.4004H43.1006V175.34H159.601V24.4004Z" fill="#253858"/>
<path d="M165.1 33.4004H37.2002V184.34H165.1V33.4004Z" fill="url(#paint1_linear)"/>
<path d="M99.5002 48H66.2002V50H99.5002V48Z" fill="#3384FF"/>
<path d="M60.4 48H52V50H60.4V48Z" fill="#3384FF"/>
<path d="M99.5002 57.4004H66.2002V59.4004H99.5002V57.4004Z" fill="#00C7E5"/>
<path d="M60.4 57.4004H52V59.4004H60.4V57.4004Z" fill="#3384FF"/>
<path d="M128.7 66.8008H66.2002V68.8008H128.7V66.8008Z" fill="#3384FF"/>
<path d="M60.4 66.8008H52V68.8008H60.4V66.8008Z" fill="#3384FF"/>
<path d="M150.301 76.2012H128.601V78.2012H150.301V76.2012Z" fill="#00C7E5"/>
<path d="M122 76.2012H66.2002V78.2012H122V76.2012Z" fill="#FAFBFC"/>
<path d="M60.4 76.2012H52V78.2012H60.4V76.2012Z" fill="#3384FF"/>
<path d="M128.7 85.5996H66.2002V87.5996H128.7V85.5996Z" fill="#3384FF"/>
<path d="M60.4 85.5996H52V87.5996H60.4V85.5996Z" fill="#3384FF"/>
<path d="M150.4 95H66.2002V97H150.4V95Z" fill="#3384FF"/>
<path d="M60.4 95H52V97H60.4V95Z" fill="#3384FF"/>
<path d="M99.5002 104.4H66.2002V106.4H99.5002V104.4Z" fill="#00C7E5"/>
<path d="M60.4 104.4H52V106.4H60.4V104.4Z" fill="#3384FF"/>
<path d="M127.301 113.801H107.101V115.801H127.301V113.801Z" fill="#3384FF"/>
<path d="M99.5002 113.801H66.2002V115.801H99.5002V113.801Z" fill="#00C7E5"/>
<path d="M60.4 113.801H52V115.801H60.4V113.801Z" fill="#3384FF"/>
<path d="M163.8 201.5H38.9002L11.2002 0.5H191.6L163.8 201.5Z" fill="url(#paint2_linear)"/>
<path d="M180.879 127.013L22.1797 126.736L21.9973 231.246L180.697 231.523L180.879 127.013Z" fill="#3384FF"/>
<path d="M128.548 202.224L88.1477 202.153C86.6013 202.151 85.3455 203.402 85.3428 204.948L85.3382 207.568C85.3355 209.115 86.5869 210.371 88.1333 210.373L128.533 210.444C130.08 210.447 131.335 209.195 131.338 207.649L131.343 205.029C131.345 203.482 130.094 202.227 128.548 202.224Z" fill="#FAFBFC"/>
<path d="M73.6 210.3C75.8644 210.3 77.7 208.464 77.7 206.2C77.7 203.935 75.8644 202.1 73.6 202.1C71.3356 202.1 69.5 203.935 69.5 206.2C69.5 208.464 71.3356 210.3 73.6 210.3Z" fill="#FAFBFC"/>
<path d="M131.5 179.999H71.2998C71.1674 180.011 71.034 179.99 70.9118 179.938C70.7896 179.885 70.6824 179.803 70.5998 179.699C70.4196 179.509 70.3133 179.261 70.2998 178.999V146.199C70.2998 145.934 70.4052 145.68 70.5927 145.492C70.7802 145.305 71.0346 145.199 71.2998 145.199H131.5C131.765 145.199 132.019 145.305 132.207 145.492C132.394 145.68 132.5 145.934 132.5 146.199V178.899C132.501 179.174 132.399 179.44 132.214 179.644C132.029 179.847 131.774 179.974 131.5 179.999ZM72.2998 177.899H130.5V147.299H72.3998L72.2998 177.899Z" fill="#0057D8"/>
<path d="M109.6 170.9C109.453 170.906 109.307 170.883 109.17 170.831C109.032 170.78 108.906 170.701 108.8 170.6C108.651 170.392 108.579 170.138 108.598 169.882C108.616 169.627 108.723 169.386 108.9 169.2L115.1 163.5L109.4 157.4C109.223 157.184 109.135 156.909 109.154 156.631C109.172 156.352 109.296 156.091 109.5 155.9C109.708 155.751 109.962 155.68 110.218 155.698C110.473 155.716 110.715 155.823 110.9 156L117.2 162.9C117.38 163.091 117.486 163.339 117.5 163.6C117.504 163.732 117.479 163.863 117.428 163.984C117.376 164.105 117.298 164.213 117.2 164.3L110.3 170.7C110.1 170.853 109.85 170.924 109.6 170.9Z" fill="#0057D8"/>
<path d="M92.8005 170.799C92.5389 170.786 92.2907 170.68 92.1005 170.499L85.8005 163.599C85.6173 163.412 85.5146 163.161 85.5146 162.899C85.5146 162.638 85.6173 162.386 85.8005 162.199L92.7005 155.799C92.8994 155.614 93.1639 155.515 93.4359 155.524C93.7078 155.533 93.9649 155.65 94.1505 155.849C94.3362 156.048 94.4352 156.313 94.4258 156.585C94.4164 156.857 94.2994 157.114 94.1005 157.299L87.9005 162.999L93.6005 169.099C93.7495 169.308 93.8211 169.562 93.8028 169.817C93.7846 170.073 93.6776 170.314 93.5005 170.499C93.4129 170.597 93.3048 170.675 93.1838 170.727C93.0629 170.779 92.932 170.804 92.8005 170.799Z" fill="#0057D8"/>
<path d="M98.7002 173.3H98.5002C98.3655 173.266 98.2393 173.204 98.1297 173.119C98.0201 173.034 97.9295 172.926 97.8637 172.804C97.7978 172.682 97.7582 172.547 97.7472 172.409C97.7363 172.27 97.7544 172.131 97.8002 172L102.8 154C102.822 153.869 102.872 153.744 102.947 153.635C103.022 153.525 103.12 153.434 103.235 153.367C103.35 153.3 103.478 153.259 103.61 153.248C103.742 153.236 103.876 153.254 104 153.3C104.131 153.321 104.256 153.371 104.365 153.446C104.475 153.522 104.566 153.62 104.633 153.735C104.7 153.849 104.741 153.977 104.752 154.11C104.764 154.242 104.746 154.375 104.7 154.5L99.7002 172.6C99.6342 172.811 99.5003 172.993 99.3194 173.12C99.1385 173.247 98.9208 173.31 98.7002 173.3Z" fill="#0057D8"/>
</g>
<defs>
<linearGradient id="paint0_linear" x1="16.0097" y1="203.89" x2="186.97" y2="32.93" gradientUnits="userSpaceOnUse">
<stop offset="0.21" stop-color="#0065FF"/>
<stop offset="1" stop-color="#4C9AFF"/>
</linearGradient>
<linearGradient id="paint1_linear" x1="31.4402" y1="178.61" x2="170.86" y2="39.2004" gradientUnits="userSpaceOnUse">
<stop stop-color="#091E42"/>
<stop offset="0.46" stop-color="#091E42" stop-opacity="0.96"/>
<stop offset="0.75" stop-color="#091E42" stop-opacity="0.83"/>
<stop offset="0.99" stop-color="#091E42" stop-opacity="0.61"/>
<stop offset="1" stop-color="#091E42" stop-opacity="0.6"/>
</linearGradient>
<linearGradient id="paint2_linear" x1="101.4" y1="201.47" x2="101.4" y2="0.5" gradientUnits="userSpaceOnUse">
<stop stop-color="#E6FCFF" stop-opacity="0.2"/>
<stop offset="0.15" stop-color="#D9F9FE" stop-opacity="0.2"/>
<stop offset="0.25" stop-color="#AEEFF9" stop-opacity="0.2"/>
<stop offset="0.33" stop-color="#66DEF0" stop-opacity="0.2"/>
<stop offset="0.4" stop-color="#00C7E5" stop-opacity="0.2"/>
<stop offset="0.63" stop-color="#00C7E5" stop-opacity="0.19"/>
<stop offset="0.78" stop-color="#00C7E5" stop-opacity="0.15"/>
<stop offset="0.89" stop-color="#00C7E5" stop-opacity="0.09"/>
<stop offset="1" stop-color="#00C7E5" stop-opacity="0"/>
</linearGradient>
<clipPath id="clip0">
<path d="M0.700195 0.5H202.3V231.6H0.700195V0.5Z" fill="white"/>
</clipPath>
</defs>
</svg>
